<?xml version='1.0' encoding='utf-8'?>
<svg xmlns="http://www.w3.org/2000/svg" width="1920" height="1080" viewBox="0 0 1920 1080" data-theme="light">
  <style>
        @font-face {
            font-family: 'Inter';
            src: url('assets/fonts/Inter-Regular.ttf') format('truetype');
            font-weight: 400;
            font-style: normal;
            font-display: swap;
        }
        @font-face {
            font-family: 'Inter';
            src: url('assets/fonts/Inter-Bold.ttf') format('truetype');
            font-weight: 600;
            font-style: normal;
            font-display: swap;
        }
        @font-face {
            font-family: 'Inter';
            src: url('assets/fonts/Inter-Bold.ttf') format('truetype');
            font-weight: 800;
            font-style: normal;
            font-display: swap;
        }
        
:root {
    --background: #f8fafc;
    --panel: #ffffff;
    --primary-text: #0f172a;
    --muted-text: #64748b;
    --inverse-text: #ffffff;
    --border: #e2e8f0;
    --shadow-color: #000000;
    --icon-pad-bg: #1e293b;
    --art-glow: #0891b2;
    --art-glow-opacity: 0.10;
    --art-sheen: #ffffff;
    --art-sheen-opacity: 0.34;
    --art-shadow: #0f172a;
    --art-shadow-opacity: 0.14;
    --art-muted-line: #94a3b8;
    --art-panel-tint: #f1f5f9;
    --font-family: 'Inter', 'Segoe UI', 'Kalam', Roboto, Helvetica, Arial, sans-serif;
    --radius-xl: 16px;
    --font-family-headline: 'Inter', 'Segoe UI', 'Kalam', Roboto, Helvetica, Arial, sans-serif;
    --font-family-body: 'Inter', 'Segoe UI', 'Kalam', Roboto, Helvetica, Arial, sans-serif;
    --font-heading: 'Inter', 'Segoe UI', 'Kalam', Roboto, Helvetica, Arial, sans-serif;
    --font-body: 'Inter', 'Segoe UI', 'Kalam', Roboto, Helvetica, Arial, sans-serif;
    --font-size-h1: 56px;
    --font-size-h2: 40px;
    --font-size-h3: 28px;
    --font-size-body: 24px;
    --font-size-caption: 18px;
    --secondary-text: var(--muted-text);
    --panel-border: var(--border);
    --font-weight-normal: 400;
    --font-weight-medium: 500;
    --font-weight-semibold: 600;
    --font-weight-bold: 700;
    --spacing-gutter-pct: 0.07;
    --spacing-top-pct: 0.15;
    --spacing-bottom-pct: 0.07;
    --spacing-title-y-pct: 0.055;
    --accent-1: #3b82f6;
    --accent-2: #22c55e;
    --accent-3: #f59e0b;
    --accent-4: #ec4899;
    --accent-5: #8b5cf6;
    --accent-6: #06b6d4;
}
:root[data-theme="dark"] {
    --background: #0f172a;
    --panel: #1e293b;
    --primary-text: #f1f5f9;
    --muted-text: #94a3b8;
    --inverse-text: #0f172a;
    --border: #334155;
    --shadow-color: #000000;
    --icon-pad-bg: #1e293b;
    --art-glow: #7dd3fc;
    --art-glow-opacity: 0.18;
    --art-sheen: #ffffff;
    --art-sheen-opacity: 0.18;
    --art-shadow: #000000;
    --art-shadow-opacity: 0.28;
    --art-muted-line: #64748b;
    --art-panel-tint: #1e293b;
    --accent-1: #93c5fd;
    --accent-2: #86efac;
    --accent-3: #fcd34d;
    --accent-4: #f9a8d4;
    --accent-5: #c4b5fd;
    --accent-6: #a5f3fc;
}
:root[data-theme="light"] {
    --background: #f8fafc;
    --panel: #ffffff;
    --primary-text: #0f172a;
    --muted-text: #64748b;
    --inverse-text: #ffffff;
    --border: #e2e8f0;
    --shadow-color: #000000;
    --icon-pad-bg: #1e293b;
    --art-glow: #0891b2;
    --art-glow-opacity: 0.10;
    --art-sheen: #ffffff;
    --art-sheen-opacity: 0.34;
    --art-shadow: #0f172a;
    --art-shadow-opacity: 0.14;
    --art-muted-line: #94a3b8;
    --art-panel-tint: #f1f5f9;
    --accent-1: #3b82f6;
    --accent-2: #22c55e;
    --accent-3: #f59e0b;
    --accent-4: #ec4899;
    --accent-5: #8b5cf6;
    --accent-6: #06b6d4;
}</style>
  <rect x="0" y="0" width="1.92E+3" height="1.08E+3" fill="#252a34" stroke="none" id="programmatic_background"/>
  <line id="HEADER_DECOR" x1="960.0" x2="1080.0" y1="135.0" y2="135.0" stroke="var(--accent-1)" stroke-width="6" stroke-linecap="round"/>
  <defs>
    <pattern id="svg244be6fa-napkin-hatch" patternUnits="userSpaceOnUse" width="12" height="12">
      <path d="M -3 12 L 12 -3 M 0 15 L 15 0" fill="none" stroke="var(--primary-text)" stroke-width="1" stroke-opacity="0.05"/>
    </pattern>
    <filter id="svg244be6fa-shadow" x="-30%" y="-30%" width="160%" height="160%">
      <feDropShadow dx="0" dy="2" stdDeviation="3" flood-color="#000000" flood-opacity="0.08"/>
      <feDropShadow dx="0" dy="6" stdDeviation="10" flood-color="#000000" flood-opacity="0.12"/>
    </filter>
    <radialGradient id="svg244be6fa-universal-edge-vignette" cx="50%" cy="50%" r="72%">
      <stop offset="0%" stop-color="var(--background)" stop-opacity="0"/>
      <stop offset="72%" stop-color="var(--background)" stop-opacity="0.12"/>
      <stop offset="100%" stop-color="var(--primary-text)" stop-opacity="0.08"/>
    </radialGradient>
    <linearGradient id="svg244be6fa-universal-surface-sheen" x1="0%" y1="0%" x2="100%" y2="100%">
      <stop offset="0%" stop-color="var(--art-sheen)" stop-opacity="var(--art-sheen-opacity)"/>
      <stop offset="46%" stop-color="var(--art-sheen)" stop-opacity="0.035"/>
      <stop offset="100%" stop-color="var(--art-panel-tint)" stop-opacity="0.14"/>
    </linearGradient>
    <radialGradient id="svg244be6fa-universal-icon-aura" cx="50%" cy="42%" r="64%">
      <stop offset="0%" stop-color="var(--art-glow)" stop-opacity="var(--art-glow-opacity)"/>
      <stop offset="100%" stop-color="var(--background)" stop-opacity="0"/>
    </radialGradient>
    <linearGradient id="svg244be6fa-fact-card-sheen" x1="0%" y1="0%" x2="100%" y2="100%">
      <stop offset="0%" stop-color="var(--inverse-text)" stop-opacity="0.18"/>
      <stop offset="54%" stop-color="var(--inverse-text)" stop-opacity="0.04"/>
      <stop offset="100%" stop-color="var(--background)" stop-opacity="0.14"/>
    </linearGradient>
    <radialGradient id="svg244be6fa-fact-icon-glow" cx="50%" cy="42%" r="62%">
      <stop offset="0%" stop-color="var(--inverse-text)" stop-opacity="0.22"/>
      <stop offset="100%" stop-color="var(--background)" stop-opacity="0"/>
    </radialGradient>
    <filter id="svg244be6fa-text-glow" x="-20%" y="-20%" width="140%" height="140%">
      <feDropShadow dx="0" dy="0" stdDeviation="2" flood-color="#000000" flood-opacity="0.4"/>
    </filter>
    <marker id="svg244be6fa-arrowhead" markerWidth="10" markerHeight="7" refX="9" refY="3.5" orient="auto" markerUnits="strokeWidth">
      <polygon points="0 0, 10 3.5, 0 7" fill="var(--muted-text)" opacity="0.6"/>
    </marker>
  </defs>
  <rect width="100%" height="100%" fill="var(--background)" id="CANVAS_BG"/>
  <rect width="100%" height="100%" fill="url(#svg244be6fa-napkin-hatch)"/>
  <rect id="UNIVERSAL_EDGE_VIGNETTE" width="100%" height="100%" fill="url(#svg244be6fa-universal-edge-vignette)" opacity="0.62"/>
  <line x1="960" y1="178" x2="960" y2="986" stroke="var(--muted-text)" stroke-width="5" stroke-opacity="0.10" stroke-linecap="round"/>
  <path d="M 360 178 C 620 152 1300 152 1560 178" fill="none" stroke="var(--primary-text)" stroke-width="2" stroke-opacity="0.12" stroke-linecap="round"/>
  <text id="TITLE" x="960.0" y="59" font-size="72" font-weight="800" fill="#0f172a" style="font-size: 60px; font-family: Inter, Segoe UI, Kalam, Roboto, Helvetica, Arial, sans-serif; font-weight: 700; letter-spacing:-1.2px;" text-anchor="middle" data-final-font-size="60">
    <tspan x="960.0" dy="68.00px">Anatomy of Macrostoma saxiperrumptus</tspan>
  </text>
  <rect id="TITLE_FRAME" x="134" y="59" width="1652" height="103" fill="none"/>
  <g transform="translate(960.0, 220.0)">
    <rect id="ITEM_1_BG" x="-600" y="-64" width="1200" height="184" rx="18" fill="var(--accent-3)" stroke="var(--accent-1)" filter="url(#svg244be6fa-shadow)" stroke-width="3" fill-opacity="1.0"/>
    <g transform="translate(-480.0, 0.0)">
      <circle r="45" fill="var(--background)" opacity="0.3"/>
      <circle id="ITEM_1_PAD" cx="0" cy="0" r="42" fill="var(--icon-pad-bg)" stroke="var(--primary-text)" opacity="0.9" fill-opacity="0.9" stroke-width="2"/>
      <circle id="ITEM_1_PAD_INNER" cx="0" cy="0" r="32.76" fill="var(--accent-3)" fill-opacity="0.22"/>
      <circle cx="0" cy="0" r="34" fill="none" stroke="var(--accent-1)" stroke-width="3" stroke-dasharray="6 4"/>
      <g id="ITEM_1_ICON" transform="translate(-34, -34)" data-icon-size="68" stroke-dasharray="6 4">
        <g transform="translate(-2.8571428571428568,-3.71428571428571) scale(0.14285714285714285)" vector-effect="non-scaling-stroke" fill="#f1f5f9" fill-opacity="1.0" stroke="none">
          <path fill="#f1f5f9" d="M453.004 35.117c-65.314 46.61-189.755 41.018-213.559 125.426C184.41 101.41 98.625 83.031 21.771 63.209c6.532 139.103 71.38 147.437 192.44 194.547c23.71 25.786 29.786 49.93 19.254 82.705c46.403 5.1 71.504 15.468 106.754 27.742c-.708-71.67-25.14-108.928-75.518-175.035c11.058 4.233 44.979 37.02 56.578 58.607c109.419-42.421 147.64-112.074 131.725-216.658M180.178 353.9c-60.89-.24-114.034 19.49-158.426 74.221c167.075-48.84 292.003-13.21 471.893 7.895c-118.936-38.752-224.474-81.763-313.467-82.116m98.043 77.844c-99.28.255-206.34 18.738-256.866 63.139c168.002-26.61 356.801-28.408 470.8-4.967c1.102-35.337-101.418-58.46-213.934-58.172" vector-effect="non-scaling-stroke" stroke="none"/>
        </g>
      </g>
    </g>
    <g transform="translate(-330, -34)">
      <text id="ITEM_1_HEAD" text-anchor="start" font-weight="bold" font-size="29" fill="var(--primary-text)" x="0.0" y="-10.0" data-bg-id="ITEM_1_BG" fill-opacity="1.0" style="font-size: 30px; font-family: Inter, Segoe UI, Kalam, Roboto, Helvetica, Arial, sans-serif; font-weight: 700; letter-spacing:-0.4px;" data-final-font-size="30">
        <tspan x="0.0" dy="33.03px">Whale Body</tspan>
      </text>
      <rect id="ITEM_1_HEAD_FRAME" x="0" y="-10" width="846" height="42" fill="none"/>
      <text id="ITEM_1_BODY" text-anchor="start" font-size="21" fill="var(--primary-text)" x="0.0" y="30.0" data-bg-id="ITEM_1_BG" style="font-size: 26px; font-family: Inter, Segoe UI, Kalam, Roboto, Helvetica, Arial, sans-serif; font-weight: 400;" data-final-font-size="26">
        <tspan x="0.0" dy="42.18px">Massive landlocked whale body adapted for mountains</tspan>
      </text>
      <rect id="ITEM_1_BODY_FRAME" x="0" y="30" width="846" height="114" fill="none"/>
    </g>
  </g>
  <g transform="translate(960.0, 390.0)">
    <rect id="ITEM_2_BG" x="-600" y="-64" width="1200" height="184" rx="18" fill="var(--accent-4)" stroke="var(--accent-2)" filter="url(#svg244be6fa-shadow)" stroke-width="3" fill-opacity="1.0"/>
    <g transform="translate(-480.0, 0.0)">
      <circle r="45" fill="var(--background)" opacity="0.3"/>
      <circle id="ITEM_2_PAD" cx="0" cy="0" r="42" fill="var(--icon-pad-bg)" stroke="var(--primary-text)" opacity="0.9" fill-opacity="0.9" stroke-width="2"/>
      <circle id="ITEM_2_PAD_INNER" cx="0" cy="0" r="32.76" fill="var(--accent-4)" fill-opacity="0.22"/>
      <circle cx="0" cy="0" r="34" fill="none" stroke="var(--accent-1)" stroke-width="3" stroke-dasharray="6 4"/>
      <g id="ITEM_2_ICON" transform="translate(-34, -34)" data-icon-size="68" stroke-dasharray="6 4">
        <g transform="translate(-4.857142857142857,-9.714285714285712) scale(2.4285714285714284)">
          <path d="M3.42688 18.2601C3.42688 18.2601 6.03688 15.1802 15.9269 14.5902C25.8169 14.0002 28.5669 18.3102 28.5669 18.3102C28.5669 18.3102 23.8769 21.6302 15.9669 21.8802C15.9669 21.8802 11.0169 22.6101 3.42688 18.2601Z" fill="#533566"/>
          <path d="M15.9969 17.52C21.1552 17.52 25.3369 16.5619 25.3369 15.38C25.3369 14.1981 21.1552 13.24 15.9969 13.24C10.8385 13.24 6.65686 14.1981 6.65686 15.38C6.65686 16.5619 10.8385 17.52 15.9969 17.52Z" fill="#F4F4F4"/>
          <path d="M26.3969 11.86L29.8869 17.35C30.0792 17.6566 30.0176 17.9983 29.82 18.2236L29.6468 18.5699C27.3768 23.1899 21.8268 27.8099 16.6768 27.8099H15.3268C10.1768 27.8099 4.62684 23.1799 2.32684 18.5699L2.12684 18.1699C2.11731 18.1509 2.10963 18.1316 2.10369 18.1124C1.97352 17.8931 1.95301 17.6068 2.11687 17.35L5.56687 11.93C5.80687 11.43 6.57687 10.39 6.57687 10.39C7.84687 8.92998 9.70687 8 11.7969 8C13.3769 8 14.8369 8.52998 15.9969 9.41998C17.1669 8.52998 18.6169 8 20.1969 8C22.2769 8 24.1469 8.92998 25.4169 10.39C25.4169 10.39 26.1769 11.41 26.3969 11.86ZM3.94878 18.0969L6.02684 18.7299C12.5168 20.6999 19.4468 20.6999 25.9468 18.7299L28.0302 18.0953L23.3269 16.5C18.5769 14.89 13.4169 14.89 8.65687 16.5L3.94878 18.0969Z" fill="#F92F60"/>
        </g>
      </g>
    </g>
    <g transform="translate(-330, -34)">
      <text id="ITEM_2_HEAD" text-anchor="start" font-weight="bold" font-size="29" fill="var(--primary-text)" x="0.0" y="-10.0" data-bg-id="ITEM_2_BG" fill-opacity="1.0" style="font-size: 30px; font-family: Inter, Segoe UI, Kalam, Roboto, Helvetica, Arial, sans-serif; font-weight: 700; letter-spacing:-0.4px;" data-final-font-size="30">
        <tspan x="0.0" dy="33.03px">Sculpin Mouth</tspan>
      </text>
      <rect id="ITEM_2_HEAD_FRAME" x="0" y="-10" width="846" height="42" fill="none"/>
      <text id="ITEM_2_BODY" text-anchor="start" font-size="21" fill="var(--primary-text)" x="0.0" y="30.0" data-bg-id="ITEM_2_BG" style="font-size: 26px; font-family: Inter, Segoe UI, Kalam, Roboto, Helvetica, Arial, sans-serif; font-weight: 400;" data-final-font-size="26">
        <tspan x="0.0" dy="42.18px">Mouth stretches back beyond the creature's ears</tspan>
      </text>
      <rect id="ITEM_2_BODY_FRAME" x="0" y="30" width="846" height="114" fill="none"/>
    </g>
  </g>
  <g transform="translate(960.0, 560.0)">
    <rect id="ITEM_3_BG" x="-600" y="-64" width="1200" height="184" rx="18" fill="var(--accent-5)" stroke="var(--accent-3)" filter="url(#svg244be6fa-shadow)" stroke-width="3" fill-opacity="1.0"/>
    <g transform="translate(-480.0, 0.0)">
      <circle r="45" fill="var(--background)" opacity="0.3"/>
      <circle id="ITEM_3_PAD" cx="0" cy="0" r="42" fill="var(--icon-pad-bg)" stroke="var(--primary-text)" opacity="0.9" fill-opacity="0.9" stroke-width="2"/>
      <circle id="ITEM_3_PAD_INNER" cx="0" cy="0" r="32.76" fill="var(--accent-5)" fill-opacity="0.22"/>
      <circle cx="0" cy="0" r="34" fill="none" stroke="var(--accent-2)" stroke-width="3" stroke-dasharray="6 4"/>
      <g id="ITEM_3_ICON" transform="translate(-34, -34)" data-icon-size="68" stroke-dasharray="6 4">
        <g transform="translate(-1.7,-2.2666666666666666) scale(0.14166666666666666)" vector-effect="non-scaling-stroke" fill="#f1f5f9" fill-opacity="1.0" stroke="none">
          <path fill="#f1f5f9" d="M196.375 18.25c3.91 19.165-.907 37.814-14.72 55.5c-15.853 20.302-44.172 38.85-84.81 51.188c-34.84 10.577-58.396 29.203-71 50.937c-12.606 21.734-14.02 46.364-5.72 67.5c14.824 37.743 60.4 62.92 121.28 47.438c12.883-4.053 27.47-10 38.97-17.188a85 85 0 0 0 6.938-4.813a41 41 0 0 1-9.344-13.031c-13.048 8.047-29.743 16.232-51.532 19.376c-47.934 8.963-78.497-12.01-88.938-38.594c-6.257-15.93-5.374-34.287 4.5-51.312s29.002-32.94 60.28-42.438c43.283-13.14 75.046-33.17 94.095-57.562c15.77-20.194 22.4-43.702 18.906-67zm17.844 151.47c-.788 0-1.588 0-2.376.03c-11.464.415-23.03 3.582-33.656 9.72c-26.423 15.252-39.106 44.164-34.25 72.25c12.21-4.294 22.097-10.274 30.906-16.157c1.418-11.078 7.93-21.27 18.72-27.5c6.337-3.66 13.285-5.464 20.124-5.5c13.055-.07 25.668 6.304 32.656 18.406c10.648 18.44 4.066 42.974-14.375 53.624c-8.564 4.945-18.115 5.99-26.97 3.844c-4.427 4.08-9.466 7.747-14.72 11.03c-5.286 3.306-10.918 6.29-16.655 8.97c15.17 10.68 33.97 15.17 52.25 12.125h.03l72.376 125.406c17.27 29.907 42.53 48.207 68.783 54.467c26.25 6.26 52.74 1.16 74.25-12.03c43.02-26.38 66.36-87.515 33.53-144.376l-16.53-28.655l-.157-.28c-19.615-36.032-45.045-60.504-75.344-75.283c12.778 45.916 17.4 91.832 16.094 137.75l28.688-34l4.906-3L443 348.72c21.954 38.025 3.593 72.716-21.125 87.874c-35.704 16.537-62.567 12.018-84.625-23.125l-71.78-124.376c20.72-22.425 25.7-57.052 9.78-84.625c-13-22.517-36.637-34.833-61.03-34.75z" vector-effect="non-scaling-stroke" stroke="none"/>
        </g>
      </g>
    </g>
    <g transform="translate(-330, -34)">
      <text id="ITEM_3_HEAD" text-anchor="start" font-weight="bold" font-size="29" fill="var(--inverse-text)" x="0.0" y="-10.0" data-bg-id="ITEM_3_BG" fill-opacity="1.0" style="font-size: 30px; font-family: Inter, Segoe UI, Kalam, Roboto, Helvetica, Arial, sans-serif; font-weight: 700; letter-spacing:-0.4px;" data-final-font-size="30">
        <tspan x="0.0" dy="33.03px">Hooked Tail</tspan>
      </text>
      <rect id="ITEM_3_HEAD_FRAME" x="0" y="-10" width="846" height="42" fill="none"/>
      <text id="ITEM_3_BODY" text-anchor="start" font-size="21" fill="var(--inverse-text)" x="0.0" y="30.0" data-bg-id="ITEM_3_BG" style="font-size: 26px; font-family: Inter, Segoe UI, Kalam, Roboto, Helvetica, Arial, sans-serif; font-weight: 400;" data-final-font-size="26">
        <tspan x="0.0" dy="42.18px">Divided flipper-tail ends in huge grab-hooks</tspan>
      </text>
      <rect id="ITEM_3_BODY_FRAME" x="0" y="30" width="846" height="114" fill="none"/>
    </g>
  </g>
  <g transform="translate(960.0, 730.0)">
    <rect id="ITEM_4_BG" x="-600" y="-64" width="1200" height="184" rx="18" fill="var(--accent-6)" stroke="var(--accent-4)" filter="url(#svg244be6fa-shadow)" stroke-width="3" fill-opacity="1.0"/>
    <g transform="translate(-480.0, 0.0)">
      <circle r="45" fill="var(--background)" opacity="0.3"/>
      <circle id="ITEM_4_PAD" cx="0" cy="0" r="42" fill="var(--icon-pad-bg)" stroke="var(--primary-text)" opacity="0.9" fill-opacity="0.9" stroke-width="2"/>
      <circle id="ITEM_4_PAD_INNER" cx="0" cy="0" r="32.76" fill="var(--accent-6)" fill-opacity="0.22"/>
      <circle cx="0" cy="0" r="34" fill="none" stroke="var(--accent-3)" stroke-width="3" stroke-dasharray="6 4"/>
      <g id="ITEM_4_ICON" transform="translate(-34, -34)" data-icon-size="68" stroke-dasharray="6 4">
        <g transform="translate(-2.2479338842975207,-8.710743801652896) scale(2.2479338842975207)">
          <path d="M9.52777 7C4.83335 7 1.02777 10.8056 1.02777 15.5V22.5C1.02777 27.1944 4.83335 31 9.52777 31C12.1363 31 14.4695 29.8246 16.0278 27.9773C17.5861 29.8246 19.9193 31 22.5278 31C27.2222 31 31.0278 27.1944 31.0278 22.5V15.5C31.0278 10.8056 27.2222 7 22.5278 7C19.9193 7 17.5861 8.17537 16.0278 10.0227C14.4695 8.17537 12.1363 7 9.52777 7Z" fill="#9B9B9B"/>
          <path d="M9.52777 8C5.38564 8 2.02777 11.3579 2.02777 15.5V22.5C2.02777 26.6421 5.38564 30 9.52777 30C12.3062 30 14.7318 28.4891 16.0278 26.2442C17.3237 28.4891 19.7493 30 22.5278 30C26.6699 30 30.0278 26.6421 30.0278 22.5V15.5C30.0278 11.3579 26.6699 8 22.5278 8C19.7493 8 17.3237 9.51086 16.0278 11.7558C14.7318 9.51086 12.3062 8 9.52777 8Z" fill="white"/>
          <path d="M15.0278 15.5C15.0278 14.1363 15.3917 12.8577 16.0278 11.7558C15.1755 10.2794 13.8345 9.12044 12.226 8.5H12.059C13.1528 9.15625 13.9965 11.75 13.9965 13V25.125C13.9965 26.4997 13.8403 28.2181 12.06 29.5618C13.7422 28.9585 15.1463 27.7711 16.0278 26.2442C15.3917 25.1423 15.0278 23.8637 15.0278 22.5V15.5Z" fill="#D3D3D3"/>
          <path d="M30.0278 15.5C30.0278 12.309 28.035 9.58346 25.226 8.5H25.059C26.7153 9.59375 27.9653 11.5625 27.9653 13.0312V25C27.9653 26.3747 26.8407 28.2181 25.06 29.5618C27.9561 28.5231 30.0278 25.7535 30.0278 22.5V15.5Z" fill="#D3D3D3"/>
          <path d="M6.59027 13C4.65727 13 3.09027 14.567 3.09027 16.5V21.5C3.09027 23.433 4.65727 25 6.59027 25C8.52327 25 10.0903 23.433 10.0903 21.5V16.5C10.0903 14.567 8.52327 13 6.59027 13Z" fill="#321B41"/>
          <path d="M19.5278 13C17.5948 13 16.0278 14.567 16.0278 16.5V21.5C16.0278 23.433 17.5948 25 19.5278 25C21.4608 25 23.0278 23.433 23.0278 21.5V16.5C23.0278 14.567 21.4608 13 19.5278 13Z" fill="#321B41"/>
          <path d="M8.76628 16.861C9.13773 16.5518 9.12055 15.9188 8.7279 15.4471C8.33525 14.9754 7.71583 14.8437 7.34438 15.1528C6.97294 15.462 6.99012 16.0951 7.38277 16.5668C7.77541 17.0385 8.39483 17.1702 8.76628 16.861Z" fill="#F4F4F4"/>
          <path d="M21.7629 16.861C22.1343 16.5518 22.1171 15.9188 21.7245 15.4471C21.3318 14.9754 20.7124 14.8437 20.341 15.1528C19.9695 15.462 19.9867 16.0951 20.3793 16.5668C20.772 17.0385 21.3914 17.1702 21.7629 16.861Z" fill="#F4F4F4"/>
        </g>
      </g>
    </g>
    <g transform="translate(-330, -34)">
      <text id="ITEM_4_HEAD" text-anchor="start" font-weight="bold" font-size="29" fill="var(--primary-text)" x="0.0" y="-10.0" data-bg-id="ITEM_4_BG" fill-opacity="1.0" style="font-size: 30px; font-family: Inter, Segoe UI, Kalam, Roboto, Helvetica, Arial, sans-serif; font-weight: 700; letter-spacing:-0.4px;" data-final-font-size="30">
        <tspan x="0.0" dy="33.03px">Small Eyes</tspan>
      </text>
      <rect id="ITEM_4_HEAD_FRAME" x="0" y="-10" width="846" height="42" fill="none"/>
      <text id="ITEM_4_BODY" text-anchor="start" font-size="21" fill="var(--primary-text)" x="0.0" y="30.0" data-bg-id="ITEM_4_BG" style="font-size: 26px; font-family: Inter, Segoe UI, Kalam, Roboto, Helvetica, Arial, sans-serif; font-weight: 400;" data-final-font-size="26">
        <tspan x="0.0" dy="42.18px">Tiny eyes watch for tourists in the gulch</tspan>
      </text>
      <rect id="ITEM_4_BODY_FRAME" x="0" y="30" width="846" height="114" fill="none"/>
    </g>
  </g>
  <g transform="translate(960.0, 900.0)">
    <rect id="ITEM_5_BG" x="-600" y="-64" width="1200" height="184" rx="18" fill="var(--accent-1)" stroke="var(--accent-5)" filter="url(#svg244be6fa-shadow)" stroke-width="3" fill-opacity="1.0"/>
    <g transform="translate(-480.0, 0.0)">
      <circle r="45" fill="var(--background)" opacity="0.3"/>
      <circle id="ITEM_5_PAD" cx="0" cy="0" r="42" fill="var(--icon-pad-bg)" stroke="var(--primary-text)" opacity="0.9" fill-opacity="0.9" stroke-width="2"/>
      <circle id="ITEM_5_PAD_INNER" cx="0" cy="0" r="32.76" fill="var(--accent-1)" fill-opacity="0.22"/>
      <circle cx="0" cy="0" r="34" fill="none" stroke="var(--accent-4)" stroke-width="3" stroke-dasharray="6 4"/>
      <g id="ITEM_5_ICON" transform="translate(-34, -34)" data-icon-size="68" stroke-dasharray="6 4">
        <g transform="translate(-2.2666666666666666,-2.266666666666667) scale(0.14166666666666666)" vector-effect="non-scaling-stroke" fill="#f1f5f9" fill-opacity="1.0" stroke="none">
          <path fill="#f1f5f9" d="M436.5 25.64c-18.3 0-35.4 6.52-45.1 20.58l-133 194.68c-3.7-1.6-7.2-2.6-10.9-2.7c-1.6 2.4-1.5 3.9-.2 6.9c1.4 3.2 5.1 7.3 9.7 10.3s10.1 4.8 14.3 5c2.7.1 4.7-.4 6.3-1.4c0-.1-.1-.2-.1-.3c-1-2.2-2.6-4.6-4.7-7L406.2 56.46c5.6-8.05 16.2-12.85 30.3-12.82c14.1 0 30.9 5.15 46.4 15.99l10.4-14.76c-18.3-12.79-38.5-19.19-56.8-19.23M137.7 76.76c-4.8.1-7.1 1.39-8.9 3.35c-3.8 3.93-5.4 14.09-3.6 24.09c3.7 19.4 9 40.2 17 57.3c8 17.2 18.5 30.3 32.4 36.5c15.9 9 27.2 23.5 32.1 38.6c1.1 3.6 2 7.3 2.7 10.9c4.3-5.8 9.8-11.6 16.9-16.9c-.1-4.3-.5-8.5-1.3-12.6c-1.9-9.2-5.7-17.1-16.2-23.7c-25.9-16.2-36.2-45.6-41.9-70.3c-2.9-12.4-4.6-23.8-6.1-32c-.8-4.11-1.6-7.43-2.2-9.29c-5.8-3.05-14.2-6.01-20.9-5.95M119.5 185.1c-3 .1-13.6 4.6-24.89 13.4s-24.02 21.2-35.71 34.8c-11.68 13.6-22.34 28.3-29.7 41.6c-7.36 13.4-10.96 25.5-10.43 31.7c1.9 25.3 21.77 43.7 39.24 49.5l11.44-15.3c-8.28-2.3-14.64-5.1-19.44-9.7c-7.29-7.5-7.7-17.2-5.33-26.1c8.44-21.8 20.12-41.3 32.67-56.1c15.94-18.7 35.45-35.2 57.45-37.2c5.1-.4 10.1 1.7 13.5 4.6s5.7 6.5 7.8 10.4c4.2 7.9 7.3 17.6 10.5 27.9c6.4 20.5 13.4 43.7 21.6 53.6c27.8 27.5 52 32.8 67.8 29.6c15.5-3.1 22.9-13.7 22.4-22.5c-.9-3-2.3-5.8-3.9-8.7c-4.7 5.2-9.9 9.9-15 14.5c-6.7 6.1-15.4 4.9-22.5 2.5s-14-6.5-20.4-11.5c-11.3-9-26.5-24.1-21.3-38.3c-4.1-10.3-3.2-22.4-5.9-31.9c-3.7-12.1-9.4-21.8-22.1-27.5h.1c-12.7-5.5-22.5-14.9-30.4-26c-6.3-2.2-12.2-3.4-17.5-3.3m110.7 65.5c-9.8 9.4-13.8 19.2-18.1 30c7.1 12.1 21.4 24.7 35.4 27.1c10.9-9.8 19.9-18.4 25.3-29.4c-.7.1-1.4.1-2.1.1c-8.4-.3-16.5-3.3-23.5-7.9c-7-4.5-13-10.5-16.4-18.1zm-79.9 12.2l-65.76 87.8c-7.83 10.7-15.87 21.2-23.78 31.7c-6.06 10.1.78 22.5 5.7 30.4c8.93 14 24.64 29.8 42.34 43c17.5 13.1 37.2 23.7 53.2 28.2c9.8 2.4 24.3 5.2 30.8-3.2l91.4-122.3c-.7-4.6-1.6-9-2.6-13.1c-6 4.9-13.5 8.5-22.1 10.2c-67 1.1-96.7-37.5-109.2-92.7m-3.9 47.2c19.6 37.9 64.7 59.6 93.6 65.4l-10.8 14.5c-31.9-7.3-67.8-21.7-93.1-66.1z" vector-effect="non-scaling-stroke" stroke="none"/>
        </g>
      </g>
    </g>
    <g transform="translate(-330, -34)">
      <text id="ITEM_5_HEAD" text-anchor="start" font-weight="bold" font-size="29" fill="var(--primary-text)" x="0.0" y="-10.0" data-bg-id="ITEM_5_BG" fill-opacity="1.0" style="font-size: 30px; font-family: Inter, Segoe UI, Kalam, Roboto, Helvetica, Arial, sans-serif; font-weight: 700; letter-spacing:-0.4px;" data-final-font-size="30">
        <tspan x="0.0" dy="33.03px">Skid Grease</tspan>
      </text>
      <rect id="ITEM_5_HEAD_FRAME" x="0" y="-10" width="846" height="42" fill="none"/>
      <text id="ITEM_5_BODY" text-anchor="start" font-size="21" fill="var(--primary-text)" x="0.0" y="30.0" data-bg-id="ITEM_5_BG" style="font-size: 26px; font-family: Inter, Segoe UI, Kalam, Roboto, Helvetica, Arial, sans-serif; font-weight: 400;" data-final-font-size="26">
        <tspan x="0.0" dy="42.18px">Secret lubricant produced from the corners of mouth</tspan>
      </text>
      <rect id="ITEM_5_BODY_FRAME" x="0" y="30" width="846" height="114" fill="none"/>
    </g>
  </g>
</svg>
