<?xml version='1.0' encoding='utf-8'?>
<svg xmlns="http://www.w3.org/2000/svg" width="1920" height="1080" viewBox="0 0 1920 1080" data-theme="dark">
  <style>
        @font-face {
            font-family: 'Inter';
            src: url('assets/fonts/Inter-Regular.ttf') format('truetype');
            font-weight: 400;
            font-style: normal;
            font-display: swap;
        }
        @font-face {
            font-family: 'Inter';
            src: url('assets/fonts/Inter-Bold.ttf') format('truetype');
            font-weight: 600;
            font-style: normal;
            font-display: swap;
        }
        @font-face {
            font-family: 'Inter';
            src: url('assets/fonts/Inter-Bold.ttf') format('truetype');
            font-weight: 800;
            font-style: normal;
            font-display: swap;
        }
        
:root {
    --background: #0f172a;
    --panel: #1e293b;
    --primary-text: #f1f5f9;
    --muted-text: #94a3b8;
    --inverse-text: #0f172a;
    --border: #334155;
    --shadow-color: #000000;
    --icon-pad-bg: #1e293b;
    --art-glow: #7dd3fc;
    --art-glow-opacity: 0.18;
    --art-sheen: #ffffff;
    --art-sheen-opacity: 0.18;
    --art-shadow: #000000;
    --art-shadow-opacity: 0.28;
    --art-muted-line: #64748b;
    --art-panel-tint: #1e293b;
    --font-family: 'Inter', 'Segoe UI', 'Kalam', Roboto, Helvetica, Arial, sans-serif;
    --radius-xl: 16px;
    --font-family-headline: 'Inter', 'Segoe UI', 'Kalam', Roboto, Helvetica, Arial, sans-serif;
    --font-family-body: 'Inter', 'Segoe UI', 'Kalam', Roboto, Helvetica, Arial, sans-serif;
    --font-heading: 'Inter', 'Segoe UI', 'Kalam', Roboto, Helvetica, Arial, sans-serif;
    --font-body: 'Inter', 'Segoe UI', 'Kalam', Roboto, Helvetica, Arial, sans-serif;
    --font-size-h1: 56px;
    --font-size-h2: 40px;
    --font-size-h3: 28px;
    --font-size-body: 24px;
    --font-size-caption: 18px;
    --secondary-text: var(--muted-text);
    --panel-border: var(--border);
    --font-weight-normal: 400;
    --font-weight-medium: 500;
    --font-weight-semibold: 600;
    --font-weight-bold: 700;
    --spacing-gutter-pct: 0.07;
    --spacing-top-pct: 0.15;
    --spacing-bottom-pct: 0.07;
    --spacing-title-y-pct: 0.055;
    --accent-1: #60a5fa;
    --accent-2: #4ade80;
    --accent-3: #f97316;
    --accent-4: #a78bfa;
    --accent-5: #38bdf8;
    --accent-6: #94a3b8;
}
:root[data-theme="dark"] {
    --background: #0f172a;
    --panel: #1e293b;
    --primary-text: #f1f5f9;
    --muted-text: #94a3b8;
    --inverse-text: #0f172a;
    --border: #334155;
    --shadow-color: #000000;
    --icon-pad-bg: #1e293b;
    --art-glow: #7dd3fc;
    --art-glow-opacity: 0.18;
    --art-sheen: #ffffff;
    --art-sheen-opacity: 0.18;
    --art-shadow: #000000;
    --art-shadow-opacity: 0.28;
    --art-muted-line: #64748b;
    --art-panel-tint: #1e293b;
    --accent-1: #60a5fa;
    --accent-2: #4ade80;
    --accent-3: #f97316;
    --accent-4: #a78bfa;
    --accent-5: #38bdf8;
    --accent-6: #94a3b8;
}
:root[data-theme="light"] {
    --background: #f8fafc;
    --panel: #ffffff;
    --primary-text: #0f172a;
    --muted-text: #64748b;
    --inverse-text: #ffffff;
    --border: #e2e8f0;
    --shadow-color: #000000;
    --icon-pad-bg: #1e293b;
    --art-glow: #0891b2;
    --art-glow-opacity: 0.10;
    --art-sheen: #ffffff;
    --art-sheen-opacity: 0.34;
    --art-shadow: #0f172a;
    --art-shadow-opacity: 0.14;
    --art-muted-line: #94a3b8;
    --art-panel-tint: #f1f5f9;
    --accent-1: #2563eb;
    --accent-2: #16a34a;
    --accent-3: #ea580c;
    --accent-4: #7c3aed;
    --accent-5: #0284c7;
    --accent-6: #475569;
}</style>
  <rect x="0" y="0" width="1.92E+3" height="1.08E+3" fill="#252a34" stroke="none" id="programmatic_background"/>
  <line id="HEADER_DECOR" x1="960.0" x2="1080.0" y1="125.0" y2="125.0" stroke="var(--accent-1)" stroke-width="6" stroke-linecap="round"/>
  <defs>
    <pattern id="svgf1cbad61-napkin-hatch" patternUnits="userSpaceOnUse" width="12" height="12">
      <path d="M -3 12 L 12 -3 M 0 15 L 15 0" fill="none" stroke="var(--primary-text)" stroke-width="1" stroke-opacity="0.05"/>
    </pattern>
    <filter id="svgf1cbad61-shadow" x="-30%" y="-30%" width="160%" height="160%">
      <feDropShadow dx="0" dy="3" stdDeviation="6" flood-color="#000000" flood-opacity="0.10"/>
      <feDropShadow dx="0" dy="8" stdDeviation="12" flood-color="#000000" flood-opacity="0.16"/>
    </filter>
    <marker id="svgf1cbad61-arrowhead" markerWidth="12" markerHeight="12" refX="10" refY="6" orient="auto">
      <path d="M 0 0 L 12 6 L 0 12 Z" fill="var(--muted-text)"/>
    </marker>
    <radialGradient id="svgf1cbad61-universal-edge-vignette" cx="50%" cy="50%" r="72%">
      <stop offset="0%" stop-color="var(--background)" stop-opacity="0"/>
      <stop offset="72%" stop-color="var(--background)" stop-opacity="0.12"/>
      <stop offset="100%" stop-color="var(--primary-text)" stop-opacity="0.08"/>
    </radialGradient>
    <linearGradient id="svgf1cbad61-universal-surface-sheen" x1="0%" y1="0%" x2="100%" y2="100%">
      <stop offset="0%" stop-color="var(--art-sheen)" stop-opacity="var(--art-sheen-opacity)"/>
      <stop offset="46%" stop-color="var(--art-sheen)" stop-opacity="0.035"/>
      <stop offset="100%" stop-color="var(--art-panel-tint)" stop-opacity="0.14"/>
    </linearGradient>
    <radialGradient id="svgf1cbad61-universal-icon-aura" cx="50%" cy="42%" r="64%">
      <stop offset="0%" stop-color="var(--art-glow)" stop-opacity="var(--art-glow-opacity)"/>
      <stop offset="100%" stop-color="var(--background)" stop-opacity="0"/>
    </radialGradient>
    <filter id="svgf1cbad61-text-glow" x="-20%" y="-20%" width="140%" height="140%">
      <feDropShadow dx="0" dy="0" stdDeviation="2" flood-color="#000000" flood-opacity="0.4"/>
    </filter>
  </defs>
  <rect width="100%" height="100%" fill="var(--background)" id="CANVAS_BG"/>
  <rect width="100%" height="100%" fill="url(#svgf1cbad61-napkin-hatch)"/>
  <rect id="UNIVERSAL_EDGE_VIGNETTE" width="100%" height="100%" fill="url(#svgf1cbad61-universal-edge-vignette)" opacity="0.62"/>
  <text id="TITLE" x="960.0" y="59" text-anchor="middle" font-size="58" font-weight="800" fill="#f1f5f9" style="font-size: 60px; font-family: Inter, Segoe UI, Kalam, Roboto, Helvetica, Arial, sans-serif; font-weight: 700; letter-spacing:-1.2px;" data-final-font-size="60">
    <tspan x="960.0" dy="68.00px">The 1949 Hunt Methodology</tspan>
  </text>
  <rect id="TITLE_FRAME" x="134" y="56" width="1652" height="98" fill="none"/>
  <rect x="120" y="165" width="1680" height="820" rx="40" fill="var(--panel)" fill-opacity="0.22" stroke="var(--muted-text)" stroke-width="2.4" opacity="0.92"/>
  <path d="M 272.0 282.0 Q 319.5 282.0 367.0 418.0 Q 414.5 418.0 462.0 554.0 Q 509.5 554.0 557.0 690.0 Q 604.5 690.0 652.0 826.0" fill="none" stroke="var(--muted-text)" stroke-width="10" stroke-linecap="round" stroke-linejoin="round" opacity="0.36" marker-end="url(#svgf1cbad61-arrowhead)"/>
  <g id="DIAGRAM_MAIN" transform="translate(-60 -20) scale(1.08)">
    <g filter="url(#svgf1cbad61-shadow)">
      <rect id="ITEM_1_BG" x="190.0" y="210.0" width="980" height="144" rx="24" fill="var(--panel)" fill-opacity="0.97" stroke="var(--accent-1)" stroke-width="2.5"/>
      <rect x="190.0" y="210.0" width="980" height="144" rx="16" fill="url(#svgf1cbad61-universal-surface-sheen)" opacity="0.86"/>
      <rect x="190.0" y="210.0" width="980" height="18" rx="9" fill="var(--accent-1)" fill-opacity="0.55"/>
      <circle id="ITEM_1_PAD" cx="272.0" cy="282.0" r="40" fill="var(--icon-pad-bg)" opacity="0.95" fill-opacity="0.9" stroke-width="2" stroke="var(--primary-text)"/>
      <circle id="ITEM_1_PAD_INNER" cx="272.0" cy="282.0" r="31.20" fill="var(--accent-2)" fill-opacity="0.22"/>
      <circle cx="272.0" cy="282.0" r="32" fill="none" stroke="var(--accent-1)" stroke-width="3" stroke-dasharray="6 4"/>
      <g id="ITEM_1_ICON" transform="translate(242.0, 252.0)" data-icon-size="60" stroke-dasharray="6 4">
        <g transform="translate(-3.245901639344269,-3.245901639344269) scale(2.0459016393442626)">
          <path d="M16.184 1C7.81346 1 1.02777 7.78568 1.02777 16.1562C1.02777 24.5268 7.81346 31.3125 16.184 31.3125C24.5546 31.3125 31.3403 24.5268 31.3403 16.1562C31.3403 7.78568 24.5546 1 16.184 1Z" fill="#9B9B9B"/>
          <path d="M30.3403 16.1562C30.3403 23.9745 24.0023 30.3125 16.184 30.3125C8.36574 30.3125 2.02777 23.9745 2.02777 16.1562C2.02777 8.33797 8.36574 2 16.184 2C24.0023 2 30.3403 8.33797 30.3403 16.1562Z" fill="white"/>
          <path d="M24.9965 15.9844C24.9965 20.9463 20.9741 24.9688 16.0121 24.9688C11.0502 24.9688 7.02777 20.9463 7.02777 15.9844C7.02777 11.0224 11.0502 7 16.0121 7C20.9741 7 24.9965 11.0224 24.9965 15.9844Z" fill="#7D4533"/>
          <path d="M21.0278 16C21.0278 18.7614 18.7892 21 16.0278 21C13.2663 21 11.0278 18.7614 11.0278 16C11.0278 13.2386 13.2663 11 16.0278 11C18.7892 11 21.0278 13.2386 21.0278 16Z" fill="#1C1C1C"/>
          <path d="M15.0278 13C15.0278 14.1046 14.1323 15 13.0278 15C11.9232 15 11.0278 14.1046 11.0278 13C11.0278 11.8954 11.9232 11 13.0278 11C14.1323 11 15.0278 11.8954 15.0278 13Z" fill="white"/>
        </g>
      </g>
      <rect x="345.0" y="238.0" width="690.0" height="24" rx="12" fill="var(--accent-1)" fill-opacity="0.08"/>
      <text x="1136.0" y="252.0" text-anchor="end" font-size="17" font-weight="800" fill="var(--accent-1)" opacity="0.72">01</text>
      <text id="ITEM_1_HEAD" x="358.0" y="228.0" text-anchor="start" font-weight="800" font-size="30" fill="var(--accent-2)" data-bg-id="ITEM_1_BG" fill-opacity="1.0" stroke="none" style="font-size: 30px; font-family: Inter, Segoe UI, Kalam, Roboto, Helvetica, Arial, sans-serif; font-weight: 700; letter-spacing:-0.4px;" data-final-font-size="30">
        <tspan x="358.0" dy="28.31px">Underwater Observation</tspan>
      </text>
      <rect id="ITEM_1_HEAD_FRAME" x="358.0" y="228.0" width="620.0" height="34" fill="none"/>
      <text id="ITEM_1_BODY" x="358.0" y="270.0" text-anchor="start" font-size="23" fill="var(--primary-text)" data-bg-id="ITEM_1_BG" style="font-size: 26px; font-family: Inter, Segoe UI, Kalam, Roboto, Helvetica, Arial, sans-serif; font-weight: 400;" data-final-font-size="26">
        <tspan x="358.0" dy="23.94px">Using homemade downspout viewers to peer</tspan>
        <tspan x="358.0" dy="29.90px">into murky depths</tspan>
      </text>
      <rect id="ITEM_1_BODY_FRAME" x="358.0" y="270.0" width="650.0" height="64.0" fill="none"/>
    </g>
    <g filter="url(#svgf1cbad61-shadow)">
      <rect id="ITEM_2_BG" x="285.0" y="346.0" width="980" height="144" rx="24" fill="var(--panel)" fill-opacity="0.97" stroke="var(--accent-2)" stroke-width="2.5"/>
      <rect x="285.0" y="346.0" width="980" height="144" rx="16" fill="url(#svgf1cbad61-universal-surface-sheen)" opacity="0.86"/>
      <rect x="285.0" y="346.0" width="980" height="18" rx="9" fill="var(--accent-2)" fill-opacity="0.55"/>
      <circle id="ITEM_2_PAD" cx="367.0" cy="418.0" r="40" fill="var(--icon-pad-bg)" opacity="0.95" fill-opacity="0.9" stroke-width="2" stroke="var(--primary-text)"/>
      <circle id="ITEM_2_PAD_INNER" cx="367.0" cy="418.0" r="31.20" fill="var(--accent-3)" fill-opacity="0.22"/>
      <circle cx="367.0" cy="418.0" r="32" fill="none" stroke="var(--accent-2)" stroke-width="3" stroke-dasharray="6 4"/>
      <g id="ITEM_2_ICON" transform="translate(337.0, 388.0)" data-icon-size="60" stroke-dasharray="6 4">
        <g transform="translate(-2.7471074380165357,-2.7471074380165335) scale(0.12892561983471076)" vector-effect="non-scaling-stroke" fill="#f1f5f9" fill-opacity="1.0" stroke="none">
          <path fill="#f1f5f9" d="M161.9 17.31c-32.7 0-63.75 8.22-88.96 24.19c-28.82 18.25-49.85 47.08-55.85 84.2c-5.99 37 2.83 81.8 31.25 133c19.84 35.6 44.25 63.8 59.66 93.5c12.4 25.7 18.4 46.7 15.6 75.2c-14.7 2.9-25.73 15.7-25.73 31.2c0 17.5 14.23 31.8 31.73 31.8c17.6 0 31.8-14.3 31.8-31.8c0-13.2-8-24.4-19.4-29.3c1-10.2 1-19.8.1-29.1c9.2-10.8 19.9-16.3 33.2-18.1c14.7-2.1 32.7.7 53.3 8.1c5.1 9.7 9.7 20 13.7 31.1c-9.2 5.4-15.3 15.4-15.3 26.8c0 17.1 13.9 31 31 31c17.2 0 31.1-13.9 31.1-31c0-16.3-12.5-29.7-28.5-31c-4-11.6-8.7-22.4-13.9-32.6c10.2-9.9 27.5-16.7 47.6-20.6c22-4.3 46.7-5.4 67.4-6c7 6.4 13.9 13.2 20.6 20.3c-.5 2.2-.8 4.6-.8 7c0 16.4 13.3 29.6 29.6 29.6c16.4 0 29.6-13.2 29.6-29.6c0-16.3-13.2-29.6-29.6-29.6c-6.9 0-13.3 2.4-18.3 6.4c-6.5-6.7-13.1-13-19.8-19.1c-1-49.1 13.3-87.6 37.8-119.2c8.9-2.2 18-5.4 27.4-9.7c5.8 5.7 13.7 9.2 22.4 9.2c17.5 0 31.7-14.2 31.7-31.8c0-17.5-14.2-31.7-31.7-31.7s-31.8 14.2-31.8 31.7c0 2.1.2 4.2.6 6.2c-7.8 3.5-15.2 6.1-22.4 8c-15.5-19.9-16.9-35.5-12.6-52.8c4.6-18.4 17.3-38.6 29.9-61.9c6.3-4.02 12-8.88 16.7-14.62c5.5 4.16 12.3 6.62 19.7 6.62c17.9 0 32.5-14.53 32.5-32.47c0-17.93-14.6-32.46-32.5-32.46s-32.5 14.53-32.5 32.46c0 3.4.6 6.68 1.5 9.75c-11.2 16.83-32.7 26.23-58.8 26.69c-26.6.47-57.1-8.56-82.7-27.25c-40-23.91-86.1-41.78-126.3-42.31m46.8 25c18.6 4.78 37.1 12.46 54.7 23.22l.1 14.75c-17.7-13.23-37.1-27.25-54.3-36.15zm-61.8 3.22l4.6 15.78c-11.2-5.2-22.9-9.35-35.3-12.09c10.7-2.2 20.7-4.03 30.7-3.69m20.2 2.72c9.1 2.07 18.4 5.46 26.2 9.03l9.8 36.94c-9.2-7.27-18.6-14.13-28.5-20.28zm-62.8 17.78c18.5 3.03 35.5 9.68 51.6 18.72l-10.8 18.65c-14-13.33-28.2-26.75-40.8-37.37m111.5 3.34c10.8 6.65 21.4 14.27 31.9 22.28c5.3 4.12 10.6 8.34 15.9 12.55l.3 44.1c-11.7-10.6-23.6-21.9-35.9-32.9zm66.4 8.85c12.6 8.53 26.2 15.08 39.9 19.62l.7 28.26c-13-8.7-26.5-19.6-40.5-30.88zm-192.29.18c15.59 13.03 30.59 27.3 45.39 42.1l-13.9 23.9c-13.6-22.6-24.73-45.32-31.49-66m81.89 16.22c13.7 9.28 26.8 19.98 39.7 31.38c-2 6.1-12.2 21.9-16.1 28.1c-12.2-12.2-24.3-24.7-36.6-37zm224.7 7.88c-8.2 14.6-15.8 28.9-19.9 44.2c-11.2.2-22.8-3.2-34.9-9.3l-.8-34.6c19.1 3.5 38 3.8 55.6-.3m-342.91 8c.3 21.8 3.72 41.3 9.41 58.9L46.75 166c.35-20.5 2.82-39.5 6.84-55.5m32.38 8.7c6.46 13.6 13.77 26.2 21.73 37.7l-13.55 5.8c-4.74-15.3-7.78-30.3-8.18-43.5m196.43.1c14.3 10.9 26.8 21 40.9 29.2l1 45.7c-14.1-7.6-27.9-17.8-41.6-29.4zm-133.5 15c11.9 12.1 23.8 24.5 36 36.6l-16.4 26.4c-12.6-11.1-24.3-23.1-35-36.5zm77.7 5.2c13 11.7 25 23.1 36.4 33.1l-17.1 28.6c-12.7-10.6-24.9-21.9-36.8-33.6zm115.6 18.7c10.3 4.3 20.9 6.9 31.7 7.2c-.2 14.1 3.6 28.7 12.9 43.6c-15.9.6-30-1.3-43.6-6.2zm-223 14.1c9.9 12.5 20.6 23.8 32 34.3l-22.7 8c-10.7-11.8-19.8-22.8-26.5-35zm79.4 12c12 11.6 24.3 22.9 37.3 33.5l-12.4 20.7c-14-9.4-28.9-20-40.5-29.2zm78.9.5c14 11.3 28.5 21.4 44 29l-16.3 28.5c-15.8-8.6-30.6-18.5-44.6-29.3c5.6-9.4 11.3-18.8 16.9-28.2m-228.53.8l22.09 4.6c5.33 11.7 11.66 22.6 18.72 32.9l-27.53-1.9c-6.04-10.7-10.69-22.4-13.28-35.6m118.53 35.1c11.4 9.4 23.3 18.1 35.5 26.4l-24.3 8.2c-12.1-8.3-24.5-17.5-34.8-26.3zm171.3.4c15 5.1 32.5 7.2 46.6 6.6c-7.6 12.1-14.1 25.1-19 39.1c-15.8-4.2-30.6-9.6-44.5-16c5.6-9.9 11.3-19.8 16.9-29.7m-88.1 8.4c14.2 10.7 29.1 20.6 45.1 29.3L285 277.7c-15.5-9.9-30.9-19.4-45.8-29c3.8-6.4 7.7-12.8 11.5-19.2m-127 6.6c10.8 10.6 23 18.1 33 26.6l-6.7 2.2c-9.3-9.5-19.5-20.4-26.3-28.8m-48.2 4.7c9.67.6 19.32 1.5 29 2c7.6 8.9 15.6 17.9 22.5 25.2c-7.3.7-17.4.9-25.6 1.2c-9.27-9.7-18.85-19.4-25.9-28.4m147.1 19.5c15.1 9.7 30.4 19.2 45.7 29l-24 10.8c-15.1-11.3-32.2-22.7-46-31.7zm89.9 6.9c15.1 7 31.2 12.9 48.4 17.5c-3.3 13.4-5.4 27.5-6.1 42.5c-17.7-14.5-35.9-27.3-54.1-39.3c3.9-6.9 7.9-13.8 11.8-20.7m-136.6 8.7c17.1 11.6 34 22.3 48.8 33l-22.9 10.3c-12.1-14-24.8-26.9-37.2-39.5zm-31.2 10.4c11.6 11.7 23.2 23.3 34.4 35.6h-24.8c-10.7-12.6-22.4-23.8-33.9-34.7c8.1-.1 16.2-.9 24.3-.9m-50.86 1.9c11.76 11.3 23.66 22.2 34.76 33.7H112c-7.2-11.3-14.92-22.4-22.66-33.6c1.5 0 3.01-.1 4.5-.1m193.26 13.2c18.2 12 36.2 24.6 53.7 38.6c-19.8 1.3-37.6 3.1-54.7 6.5c-6.1-12.3-15.1-23.1-25.9-33c8.9-4.1 17.9-8.1 26.9-12.1m-45.7 20.5c11.3 9.5 20.3 19.3 26.2 29.7c-11.3 3.8-21.7 9-30.1 16.2c-7.2-12.1-15.1-23.2-23.3-33.7zM123 340.6h22.2c6.3 7.9 12.1 16.2 17 25.2c-8.7 2.6-16.8 6.7-24.1 12.5c-4.1-14-9-26.4-15.1-37.7m45.7 0h26.6c6.8 8.3 13.3 16.9 19.4 26c-11.6-2.8-22.6-4.2-33.1-3.8c-4.1-7.9-8.6-15.9-12.9-22.2" vector-effect="non-scaling-stroke" stroke="none"/>
        </g>
      </g>
      <rect x="440.0" y="374.0" width="690.0" height="24" rx="12" fill="var(--accent-2)" fill-opacity="0.08"/>
      <text x="1231.0" y="388.0" text-anchor="end" font-size="17" font-weight="800" fill="var(--accent-2)" opacity="0.72">02</text>
      <text id="ITEM_2_HEAD" x="453.0" y="364.0" text-anchor="start" font-weight="800" font-size="30" fill="var(--accent-3)" data-bg-id="ITEM_2_BG" fill-opacity="1.0" stroke="none" style="font-size: 30px; font-family: Inter, Segoe UI, Kalam, Roboto, Helvetica, Arial, sans-serif; font-weight: 700; letter-spacing:-0.4px;" data-final-font-size="30">
        <tspan x="453.0" dy="28.31px">Physical Trapping</tspan>
      </text>
      <rect id="ITEM_2_HEAD_FRAME" x="453.0" y="364.0" width="620.0" height="34" fill="none"/>
      <text id="ITEM_2_BODY" x="453.0" y="406.0" text-anchor="start" font-size="23" fill="var(--primary-text)" data-bg-id="ITEM_2_BG" style="font-size: 26px; font-family: Inter, Segoe UI, Kalam, Roboto, Helvetica, Arial, sans-serif; font-weight: 400;" data-final-font-size="26">
        <tspan x="453.0" dy="29.92px">Deploying nets and traps to secure the elusive creature</tspan>
      </text>
      <rect id="ITEM_2_BODY_FRAME" x="453.0" y="406.0" width="650.0" height="64.0" fill="none"/>
    </g>
    <g filter="url(#svgf1cbad61-shadow)">
      <rect id="ITEM_3_BG" x="380.0" y="482.0" width="980" height="144" rx="24" fill="var(--panel)" fill-opacity="0.97" stroke="var(--accent-3)" stroke-width="2.5"/>
      <rect x="380.0" y="482.0" width="980" height="144" rx="16" fill="url(#svgf1cbad61-universal-surface-sheen)" opacity="0.86"/>
      <rect x="380.0" y="482.0" width="980" height="18" rx="9" fill="var(--accent-3)" fill-opacity="0.55"/>
      <circle id="ITEM_3_PAD" cx="462.0" cy="554.0" r="40" fill="var(--icon-pad-bg)" opacity="0.95" fill-opacity="0.9" stroke-width="2" stroke="var(--primary-text)"/>
      <circle id="ITEM_3_PAD_INNER" cx="462.0" cy="554.0" r="31.20" fill="var(--accent-4)" fill-opacity="0.22"/>
      <circle cx="462.0" cy="554.0" r="32" fill="none" stroke="var(--accent-3)" stroke-width="3" stroke-dasharray="6 4"/>
      <g id="ITEM_3_ICON" transform="translate(432.0, 524.0)" data-icon-size="60" stroke-dasharray="6 4">
        <g transform="translate(-4.542857142857144,-5.65714285714286) scale(2.2285714285714286)">
          <path d="M11.0312 15.7377C11.151 17.0063 12.2202 18 13.52 18C14.8123 18 15.8766 17.0178 15.9985 15.7597L15.8816 15.5262C15.4355 15.148 15.1209 14.6936 14.8857 14.132L14.4162 13.1147C14.2666 12.7759 13.879 12.5171 13.52 12.5171C13.1511 12.5171 12.7063 12.7759 12.5667 13.1147L12.1256 14.132C11.8982 14.6751 11.577 15.104 11.151 15.4764L11.0312 15.7377Z" fill="#533566"/>
          <path d="M11.7402 12.8047L11.3231 13.7873L11.3212 13.7919C10.8885 14.8253 9.87597 15.5 8.75357 15.5C6.12435 15.5 4 13.3761 4 10.75C4 8.12618 6.1221 6 8.77351 6H18.2464C20.8757 6 23 8.12392 23 10.75C23 13.3761 20.8757 15.5 18.2464 15.5C17.124 15.5 16.1116 14.8253 15.6788 13.7919L15.2553 12.7942L15.2524 12.7877C14.9495 12.1015 14.2712 11.6334 13.5 11.6334C12.7316 11.6334 12.0369 12.0914 11.7402 12.8047Z" fill="#83CBFF"/>
          <path d="M22.3647 10.75C22.3647 8.46793 20.51 6.61438 18.2265 6.61438H8.75357C6.47009 6.61438 4.61538 8.46793 4.61538 10.75C4.61538 13.0321 6.47009 14.8856 8.75357 14.8856C9.63106 14.8856 10.4088 14.3674 10.7479 13.5602L11.1667 12.5736C11.5556 11.6369 12.4729 11.029 13.49 11.029C14.5071 11.029 15.4145 11.6369 15.8134 12.5736L16.2322 13.5602C16.5712 14.3674 17.349 14.8856 18.2265 14.8856C20.51 14.8856 22.3647 13.0321 22.3647 10.75ZM8.75357 5H18.2265C21.4074 5 23.99 7.57105 24 10.75C24 13.9289 21.4274 16.5 18.2464 16.5C16.7208 16.5 15.3447 15.5832 14.7564 14.1781L14.3376 13.1915C14.188 12.8527 13.859 12.6334 13.5 12.6334C13.1311 12.6334 12.802 12.8527 12.6624 13.1915L12.2436 14.1781C11.6553 15.5832 10.2792 16.5 8.75357 16.5C5.57265 16.5 3 13.9289 3 10.75C3 7.57105 5.57265 5 8.75357 5ZM28 22V6L27.5 5.5H25.5L25 6L25 21.9945C24.9999 21.9984 24.9997 22.0081 24.9992 22.023C24.9982 22.0529 24.996 22.1038 24.9911 22.1724C24.9813 22.3103 24.9608 22.517 24.9188 22.769C24.8337 23.2802 24.6661 23.9388 24.3459 24.5792C24.0286 25.2137 23.5762 25.8027 22.9258 26.2363C22.2847 26.6637 21.3625 27 20 27C18.6375 27 17.7153 26.6637 17.0742 26.2363C16.4238 25.8027 15.9714 25.2137 15.6541 24.5792C15.3339 23.9388 15.1663 23.2802 15.0812 22.769C15.0392 22.517 15.0187 22.3103 15.0089 22.1724C15.004 22.1038 15.0018 22.0529 15.0008 22.023C15.0004 22.0135 15.0002 22.0062 15.0001 22.0011C15.0001 21.9981 15 21.9945 15 21.9945L15 21.9933C14.9964 21.1679 14.3262 20.5 13.5 20.5C12.6716 20.5 11.9999 21.1716 12 22L12 22.0015L12 22.0032L12 22.0071L12.0001 22.0166L12.0004 22.0428C12.0007 22.0634 12.0013 22.0903 12.0024 22.123C12.0046 22.1883 12.0087 22.2771 12.0165 22.3862C12.0321 22.6038 12.0624 22.9049 12.122 23.2622C12.2399 23.9698 12.4786 24.9362 12.9709 25.9208C13.4661 26.9113 14.2325 27.9473 15.4101 28.7325C16.5972 29.5238 18.1125 30 20 30C21.8875 30 23.4028 29.5238 24.5899 28.7325C25.7675 27.9473 26.5339 26.9113 27.0291 25.9208C27.5214 24.9362 27.7601 23.9698 27.878 23.2622C27.9376 22.9049 27.9679 22.6038 27.9835 22.3862C27.9913 22.2771 27.9954 22.1883 27.9976 22.123C27.9987 22.0903 27.9993 22.0634 27.9996 22.0428L27.9999 22.0166L28 22.0071L28 22.0032L28 22.0015V22Z" fill="#F8312F"/>
          <path d="M25.5 2C25.2239 2 25 2.22386 25 2.5V6H28V2.5C28 2.22386 27.7761 2 27.5 2H25.5ZM11.0171 20H15.9829C16.5513 20 17 20.451 17 21C17 21.549 16.5413 22 15.9829 22H11.0171C10.4587 22 10 21.549 10 21C10 20.451 10.4587 20 11.0171 20Z" fill="#533566"/>
        </g>
      </g>
      <rect x="535.0" y="510.0" width="690.0" height="24" rx="12" fill="var(--accent-3)" fill-opacity="0.08"/>
      <text x="1326.0" y="524.0" text-anchor="end" font-size="17" font-weight="800" fill="var(--accent-3)" opacity="0.72">03</text>
      <text id="ITEM_3_HEAD" x="548.0" y="500.0" text-anchor="start" font-weight="800" font-size="30" fill="var(--accent-4)" data-bg-id="ITEM_3_BG" fill-opacity="1.0" stroke="none" style="font-size: 30px; font-family: Inter, Segoe UI, Kalam, Roboto, Helvetica, Arial, sans-serif; font-weight: 700; letter-spacing:-0.4px;" data-final-font-size="30">
        <tspan x="548.0" dy="28.31px">Diving Attempts</tspan>
      </text>
      <rect id="ITEM_3_HEAD_FRAME" x="548.0" y="500.0" width="620.0" height="34" fill="none"/>
      <text id="ITEM_3_BODY" x="548.0" y="542.0" text-anchor="start" font-size="23" fill="var(--primary-text)" data-bg-id="ITEM_3_BG" style="font-size: 26px; font-family: Inter, Segoe UI, Kalam, Roboto, Helvetica, Arial, sans-serif; font-weight: 400;" data-final-font-size="26">
        <tspan x="548.0" dy="23.94px">Professional divers entered the lake but faced</tspan>
        <tspan x="548.0" dy="29.90px">equipment failures</tspan>
      </text>
      <rect id="ITEM_3_BODY_FRAME" x="548.0" y="542.0" width="650.0" height="64.0" fill="none"/>
    </g>
    <g filter="url(#svgf1cbad61-shadow)">
      <rect id="ITEM_4_BG" x="475.0" y="618.0" width="980" height="144" rx="24" fill="var(--panel)" fill-opacity="0.97" stroke="var(--accent-4)" stroke-width="2.5"/>
      <rect x="475.0" y="618.0" width="980" height="144" rx="16" fill="url(#svgf1cbad61-universal-surface-sheen)" opacity="0.86"/>
      <rect x="475.0" y="618.0" width="980" height="18" rx="9" fill="var(--accent-4)" fill-opacity="0.55"/>
      <circle id="ITEM_4_PAD" cx="557.0" cy="690.0" r="40" fill="var(--icon-pad-bg)" opacity="0.95" fill-opacity="0.9" stroke-width="2" stroke="var(--primary-text)"/>
      <circle id="ITEM_4_PAD_INNER" cx="557.0" cy="690.0" r="31.20" fill="var(--accent-5)" fill-opacity="0.22"/>
      <circle cx="557.0" cy="690.0" r="32" fill="none" stroke="var(--accent-4)" stroke-width="3" stroke-dasharray="6 4"/>
      <g id="ITEM_4_ICON" transform="translate(527.0, 660.0)" data-icon-size="60" stroke-dasharray="6 4">
        <g transform="translate(-6.977777777777781,-6.977777777777781) scale(3.081481481481482)" vector-effect="non-scaling-stroke" fill="#f1f5f9" fill-opacity="1.0" stroke="none">
          <path fill="#f1f5f9" d="M19 14.5s2 2.17 2 3.5a2 2 0 0 1-2 2a2 2 0 0 1-2-2c0-1.33 2-3.5 2-3.5M5 18V9a2 2 0 0 1-2-2a2 2 0 0 1 2-2V4a2 2 0 0 1 2-2h2a2 2 0 0 1 2 2v1h8a2 2 0 0 1 2 2v4a1 1 0 0 1 1 1a1 1 0 0 1-1 1h-4a1 1 0 0 1-1-1a1 1 0 0 1 1-1V9h-6v9h1a2 2 0 0 1 2 2v2H2v-2a2 2 0 0 1 2-2z" vector-effect="non-scaling-stroke" stroke="none"/>
        </g>
      </g>
      <rect x="630.0" y="646.0" width="690.0" height="24" rx="12" fill="var(--accent-4)" fill-opacity="0.08"/>
      <text x="1421.0" y="660.0" text-anchor="end" font-size="17" font-weight="800" fill="var(--accent-4)" opacity="0.72">04</text>
      <text id="ITEM_4_HEAD" x="643.0" y="636.0" text-anchor="start" font-weight="800" font-size="30" fill="var(--accent-5)" data-bg-id="ITEM_4_BG" fill-opacity="1.0" stroke="none" style="font-size: 30px; font-family: Inter, Segoe UI, Kalam, Roboto, Helvetica, Arial, sans-serif; font-weight: 700; letter-spacing:-0.4px;" data-final-font-size="30">
        <tspan x="643.0" dy="28.31px">Lake Draining</tspan>
      </text>
      <rect id="ITEM_4_HEAD_FRAME" x="643.0" y="636.0" width="620.0" height="34" fill="none"/>
      <text id="ITEM_4_BODY" x="643.0" y="678.0" text-anchor="start" font-size="23" fill="var(--primary-text)" data-bg-id="ITEM_4_BG" style="font-size: 26px; font-family: Inter, Segoe UI, Kalam, Roboto, Helvetica, Arial, sans-serif; font-weight: 400;" data-final-font-size="26">
        <tspan x="643.0" dy="23.94px">Attempting to lower water levels to expose</tspan>
        <tspan x="643.0" dy="29.90px">the turtle shell</tspan>
      </text>
      <rect id="ITEM_4_BODY_FRAME" x="643.0" y="678.0" width="650.0" height="64.0" fill="none"/>
    </g>
    <g filter="url(#svgf1cbad61-shadow)">
      <rect id="ITEM_5_BG" x="570.0" y="754.0" width="980" height="144" rx="24" fill="var(--panel)" fill-opacity="0.97" stroke="var(--accent-5)" stroke-width="2.5"/>
      <rect x="570.0" y="754.0" width="980" height="144" rx="16" fill="url(#svgf1cbad61-universal-surface-sheen)" opacity="0.86"/>
      <rect x="570.0" y="754.0" width="980" height="18" rx="9" fill="var(--accent-5)" fill-opacity="0.55"/>
      <circle id="ITEM_5_PAD" cx="652.0" cy="826.0" r="40" fill="var(--icon-pad-bg)" opacity="0.95" fill-opacity="0.9" stroke-width="2" stroke="var(--primary-text)"/>
      <circle id="ITEM_5_PAD_INNER" cx="652.0" cy="826.0" r="31.20" fill="var(--accent-6)" fill-opacity="0.22"/>
      <circle cx="652.0" cy="826.0" r="32" fill="none" stroke="var(--accent-5)" stroke-width="3" stroke-dasharray="6 4"/>
      <g id="ITEM_5_ICON" transform="translate(622.0, 796.0)" data-icon-size="60" stroke-dasharray="6 4">
        <g transform="translate(-3.844067796610173,-6.752542372881361) scale(2.820338983050848)" vector-effect="non-scaling-stroke" stroke-width="2.43" stroke-linecap="round" stroke-linejoin="round" stroke-opacity="1.0">
          <path d="M19 17h2c.6 0 1-.4 1-1v-3c0-.9-.7-1.7-1.5-1.9C18.7 10.6 16 10 16 10s-1.3-1.4-2.2-2.3c-.5-.4-1.1-.7-1.8-.7H5c-.6 0-1.1.4-1.4.9l-1.4 2.9A3.7 3.7 0 0 0 2 12v4c0 .6.4 1 1 1h2" vector-effect="non-scaling-stroke" fill="none" stroke="#f1f5f9"/>
          <circle cx="7" cy="17" r="2" vector-effect="non-scaling-stroke" fill="none" stroke="#f1f5f9"/>
          <path d="M9 17h6" vector-effect="non-scaling-stroke" fill="none" stroke="#f1f5f9"/>
          <circle cx="17" cy="17" r="2" vector-effect="non-scaling-stroke" fill="none" stroke="#f1f5f9"/>
        </g>
      </g>
      <rect x="725.0" y="782.0" width="690.0" height="24" rx="12" fill="var(--accent-5)" fill-opacity="0.08"/>
      <text x="1516.0" y="796.0" text-anchor="end" font-size="17" font-weight="800" fill="var(--accent-5)" opacity="0.72">05</text>
      <text id="ITEM_5_HEAD" x="738.0" y="772.0" text-anchor="start" font-weight="800" font-size="30" fill="var(--accent-6)" data-bg-id="ITEM_5_BG" fill-opacity="1.0" stroke="none" style="font-size: 30px; font-family: Inter, Segoe UI, Kalam, Roboto, Helvetica, Arial, sans-serif; font-weight: 700; letter-spacing:-0.4px;" data-final-font-size="30">
        <tspan x="738.0" dy="28.31px">Public Spectacle</tspan>
      </text>
      <rect id="ITEM_5_HEAD_FRAME" x="738.0" y="772.0" width="620.0" height="34" fill="none"/>
      <text id="ITEM_5_BODY" x="738.0" y="814.0" text-anchor="start" font-size="23" fill="var(--primary-text)" data-bg-id="ITEM_5_BG" style="font-size: 26px; font-family: Inter, Segoe UI, Kalam, Roboto, Helvetica, Arial, sans-serif; font-weight: 400;" data-final-font-size="26">
        <tspan x="738.0" dy="29.92px">Crowds and press turned the search into a media event</tspan>
      </text>
      <rect id="ITEM_5_BODY_FRAME" x="738.0" y="814.0" width="650.0" height="64.0" fill="none"/>
    </g>
  </g>
</svg>
