<?xml version='1.0' encoding='utf-8'?>
<svg xmlns="http://www.w3.org/2000/svg" width="1920" height="1080" viewBox="0 0 1920 1080" data-theme="light">
  <style>
        @font-face {
            font-family: 'Inter';
            src: url('assets/fonts/Inter-Regular.ttf') format('truetype');
            font-weight: 400;
            font-style: normal;
            font-display: swap;
        }
        @font-face {
            font-family: 'Inter';
            src: url('assets/fonts/Inter-Bold.ttf') format('truetype');
            font-weight: 600;
            font-style: normal;
            font-display: swap;
        }
        @font-face {
            font-family: 'Inter';
            src: url('assets/fonts/Inter-Bold.ttf') format('truetype');
            font-weight: 800;
            font-style: normal;
            font-display: swap;
        }
        
:root {
    --background: #f8fafc;
    --panel: #ffffff;
    --primary-text: #0f172a;
    --muted-text: #64748b;
    --inverse-text: #ffffff;
    --border: #e2e8f0;
    --shadow-color: #000000;
    --icon-pad-bg: #1e293b;
    --art-glow: #0891b2;
    --art-glow-opacity: 0.10;
    --art-sheen: #ffffff;
    --art-sheen-opacity: 0.34;
    --art-shadow: #0f172a;
    --art-shadow-opacity: 0.14;
    --art-muted-line: #94a3b8;
    --art-panel-tint: #f1f5f9;
    --font-family: 'Inter', 'Segoe UI', 'Kalam', Roboto, Helvetica, Arial, sans-serif;
    --radius-xl: 16px;
    --font-family-headline: 'Inter', 'Segoe UI', 'Kalam', Roboto, Helvetica, Arial, sans-serif;
    --font-family-body: 'Inter', 'Segoe UI', 'Kalam', Roboto, Helvetica, Arial, sans-serif;
    --font-heading: 'Inter', 'Segoe UI', 'Kalam', Roboto, Helvetica, Arial, sans-serif;
    --font-body: 'Inter', 'Segoe UI', 'Kalam', Roboto, Helvetica, Arial, sans-serif;
    --font-size-h1: 56px;
    --font-size-h2: 40px;
    --font-size-h3: 28px;
    --font-size-body: 24px;
    --font-size-caption: 18px;
    --secondary-text: var(--muted-text);
    --panel-border: var(--border);
    --font-weight-normal: 400;
    --font-weight-medium: 500;
    --font-weight-semibold: 600;
    --font-weight-bold: 700;
    --spacing-gutter-pct: 0.07;
    --spacing-top-pct: 0.15;
    --spacing-bottom-pct: 0.07;
    --spacing-title-y-pct: 0.055;
    --accent-1: #3b82f6;
    --accent-2: #22c55e;
    --accent-3: #f59e0b;
    --accent-4: #ec4899;
    --accent-5: #8b5cf6;
    --accent-6: #06b6d4;
}
:root[data-theme="dark"] {
    --background: #0f172a;
    --panel: #1e293b;
    --primary-text: #f1f5f9;
    --muted-text: #94a3b8;
    --inverse-text: #0f172a;
    --border: #334155;
    --shadow-color: #000000;
    --icon-pad-bg: #1e293b;
    --art-glow: #7dd3fc;
    --art-glow-opacity: 0.18;
    --art-sheen: #ffffff;
    --art-sheen-opacity: 0.18;
    --art-shadow: #000000;
    --art-shadow-opacity: 0.28;
    --art-muted-line: #64748b;
    --art-panel-tint: #1e293b;
    --accent-1: #93c5fd;
    --accent-2: #86efac;
    --accent-3: #fcd34d;
    --accent-4: #f9a8d4;
    --accent-5: #c4b5fd;
    --accent-6: #a5f3fc;
}
:root[data-theme="light"] {
    --background: #f8fafc;
    --panel: #ffffff;
    --primary-text: #0f172a;
    --muted-text: #64748b;
    --inverse-text: #ffffff;
    --border: #e2e8f0;
    --shadow-color: #000000;
    --icon-pad-bg: #1e293b;
    --art-glow: #0891b2;
    --art-glow-opacity: 0.10;
    --art-sheen: #ffffff;
    --art-sheen-opacity: 0.34;
    --art-shadow: #0f172a;
    --art-shadow-opacity: 0.14;
    --art-muted-line: #94a3b8;
    --art-panel-tint: #f1f5f9;
    --accent-1: #3b82f6;
    --accent-2: #22c55e;
    --accent-3: #f59e0b;
    --accent-4: #ec4899;
    --accent-5: #8b5cf6;
    --accent-6: #06b6d4;
}</style>
  <rect x="0" y="0" width="1.92E+3" height="1.08E+3" fill="#252a34" stroke="none" id="programmatic_background"/>
  <line id="HEADER_DECOR" x1="960.0" x2="1080.0" y1="127.0" y2="127.0" stroke="var(--accent-1)" stroke-width="6" stroke-linecap="round"/>
  <defs>
    <pattern id="svg2eb3ceb2-napkin-hatch" patternUnits="userSpaceOnUse" width="12" height="12">
      <path d="M -3 12 L 12 -3 M 0 15 L 15 0" fill="none" stroke="var(--primary-text)" stroke-width="1" stroke-opacity="0.05"/>
    </pattern>
    <filter id="svg2eb3ceb2-shadow" x="-30%" y="-30%" width="160%" height="160%">
      <feDropShadow dx="0" dy="3" stdDeviation="6" flood-color="#000000" flood-opacity="0.10"/>
      <feDropShadow dx="0" dy="8" stdDeviation="12" flood-color="#000000" flood-opacity="0.16"/>
    </filter>
    <radialGradient id="svg2eb3ceb2-universal-edge-vignette" cx="50%" cy="50%" r="72%">
      <stop offset="0%" stop-color="var(--background)" stop-opacity="0"/>
      <stop offset="72%" stop-color="var(--background)" stop-opacity="0.12"/>
      <stop offset="100%" stop-color="var(--primary-text)" stop-opacity="0.08"/>
    </radialGradient>
    <linearGradient id="svg2eb3ceb2-universal-surface-sheen" x1="0%" y1="0%" x2="100%" y2="100%">
      <stop offset="0%" stop-color="var(--art-sheen)" stop-opacity="var(--art-sheen-opacity)"/>
      <stop offset="46%" stop-color="var(--art-sheen)" stop-opacity="0.035"/>
      <stop offset="100%" stop-color="var(--art-panel-tint)" stop-opacity="0.14"/>
    </linearGradient>
    <radialGradient id="svg2eb3ceb2-universal-icon-aura" cx="50%" cy="42%" r="64%">
      <stop offset="0%" stop-color="var(--art-glow)" stop-opacity="var(--art-glow-opacity)"/>
      <stop offset="100%" stop-color="var(--background)" stop-opacity="0"/>
    </radialGradient>
    <filter id="svg2eb3ceb2-text-glow" x="-20%" y="-20%" width="140%" height="140%">
      <feDropShadow dx="0" dy="0" stdDeviation="2" flood-color="#000000" flood-opacity="0.4"/>
    </filter>
    <marker id="svg2eb3ceb2-arrowhead" markerWidth="10" markerHeight="7" refX="9" refY="3.5" orient="auto" markerUnits="strokeWidth">
      <polygon points="0 0, 10 3.5, 0 7" fill="var(--muted-text)" opacity="0.6"/>
    </marker>
  </defs>
  <rect width="100%" height="100%" fill="var(--background)" id="CANVAS_BG"/>
  <rect width="100%" height="100%" fill="url(#svg2eb3ceb2-napkin-hatch)"/>
  <rect id="UNIVERSAL_EDGE_VIGNETTE" width="100%" height="100%" fill="url(#svg2eb3ceb2-universal-edge-vignette)" opacity="0.62"/>
  <text id="TITLE" x="960.0" y="59" text-anchor="middle" font-size="60" font-weight="800" fill="#0f172a" style="font-size: 60px; font-family: Inter, Segoe UI, Kalam, Roboto, Helvetica, Arial, sans-serif; font-weight: 700; letter-spacing:-1.2px;" data-final-font-size="60">
    <tspan x="960.0" dy="68.00px">Wildlife Explaining Chesapeake Sightings</tspan>
  </text>
  <rect id="TITLE_FRAME" x="134" y="54" width="1652" height="100" fill="none"/>
  <rect x="150" y="150" width="1620" height="850" rx="40" fill="var(--panel)" fill-opacity="0.18" stroke="var(--muted-text)" stroke-width="2" opacity="0.90"/>
  <line x1="360" y1="212.0" x2="360" y2="938.0" stroke="var(--muted-text)" stroke-width="18" stroke-linecap="round" opacity="0.18"/>
  <line x1="360" y1="212.0" x2="360" y2="938.0" stroke="var(--border)" stroke-width="3" stroke-linecap="round" opacity="0.72"/>
  <g id="DIAGRAM_MAIN">
    <g filter="url(#svg2eb3ceb2-shadow)">
      <line x1="404.0" y1="240.0" x2="420.0" y2="240.0" stroke="var(--accent-1)" stroke-width="5" opacity="0.76" stroke-linecap="round"/>
      <rect id="ITEM_1_BG" x="420.0" y="174.0" width="1085" height="152" rx="22" fill="var(--panel)" fill-opacity="0.97" stroke="var(--accent-1)" stroke-width="2.5"/>
      <rect x="420.0" y="174.0" width="1085" height="152" rx="16" fill="url(#svg2eb3ceb2-universal-surface-sheen)" opacity="0.88"/>
      <rect x="420.0" y="174.0" width="14" height="132" rx="7" fill="var(--accent-1)" fill-opacity="0.90"/>
      <circle id="ITEM_1_PAD" cx="360" cy="240.0" r="46" fill="var(--icon-pad-bg)" opacity="0.95" fill-opacity="0.9" stroke-width="2" stroke="var(--primary-text)"/>
      <circle id="ITEM_1_PAD_INNER" cx="360" cy="240.0" r="35.88" fill="var(--accent-4)" fill-opacity="0.22"/>
      <circle cx="360" cy="240.0" r="38" fill="none" stroke="var(--accent-1)" stroke-width="3" stroke-dasharray="6 4"/>
      <g id="ITEM_1_ICON" transform="translate(324, 204.0)" data-icon-size="72" stroke-dasharray="6 4">
        <g transform="translate(-5.142857142857143,-9.964285714285717) scale(2.5714285714285716)">
          <path d="M16.4063 5.86579C13.7196 5.86579 12.6138 8.38265 12.5642 10.6875H11.6562C7.71325 10.6875 4.386 13.3238 3.34101 16.93C3.24997 16.9043 3.15393 16.8906 3.05469 16.8906C2.4722 16.8906 2 17.3628 2 17.9453C2 18.4103 2.30089 18.805 2.71858 18.9453C2.30089 19.0856 2 19.4803 2 19.9453C2 20.5278 2.4722 21 3.05469 21C3.08932 21 3.12355 20.9983 3.15732 20.9951C3.92819 24.986 7.44024 28 11.6563 28H13.4398C13.476 28.965 13.9493 29.9973 15.071 29.9973H17.2755C17.3817 30.0155 17.5836 29.9508 17.5411 29.5463C17.4984 29.1401 17.31 28.3105 16.3079 28H16.3438C20.7284 28 24.3516 24.7401 24.9219 20.5117V24.688C24.9219 26.9377 29.8438 29.3129 29.8438 27.1254V22.6252C29.8438 21.42 27.8051 19.365 26.5403 19.3439C27.8051 19.3227 29.8438 17.2678 29.8438 16.0625V11.5623C29.8438 9.37484 24.9219 11.75 24.9219 13.9998V18.1758C24.4203 14.4568 21.5569 11.4869 17.8911 10.8254C21.509 10.5504 22.1007 8.05045 22.2188 6.92694C22.3188 5.97513 21.8438 5.82292 21.5938 5.86579H16.4063Z" fill="#00A6ED"/>
          <path d="M11.7261 13.8039C11.9035 13.5922 12.2189 13.5644 12.4305 13.7418C15.4796 16.2969 15.6411 20.7905 12.4726 24.1405C12.2829 24.3411 11.9664 24.3499 11.7658 24.1601C11.5652 23.9704 11.5564 23.6539 11.7461 23.4533C14.5777 20.4595 14.3329 16.6406 11.7882 14.5082C11.5766 14.3309 11.5488 14.0155 11.7261 13.8039Z" fill="#0074BA"/>
          <path d="M9.07812 17.5C9.07812 17.8365 8.8053 18.1094 8.46875 18.1094C8.1322 18.1094 7.85938 17.8365 7.85938 17.5C7.85938 17.1635 8.1322 16.8906 8.46875 16.8906C8.8053 16.8906 9.07812 17.1635 9.07812 17.5Z" fill="#1C1C1C"/>
        </g>
      </g>
      <text id="ITEM_1_HEAD" x="500.0" y="192.0" text-anchor="start" font-weight="800" font-size="30" fill="var(--primary-text)" data-bg-id="ITEM_1_BG" fill-opacity="1.0" style="font-size: 30px; font-family: Inter, Segoe UI, Kalam, Roboto, Helvetica, Arial, sans-serif; font-weight: 700; letter-spacing:-0.4px;" data-final-font-size="30">
        <tspan x="500.0" dy="27.13px">Atlantic Sturgeon</tspan>
      </text>
      <rect id="ITEM_1_HEAD_FRAME" x="500" y="192.0" width="760" height="32" fill="none"/>
      <text id="ITEM_1_BODY" x="500.0" y="230.0" text-anchor="start" font-size="24" fill="var(--primary-text)" data-bg-id="ITEM_1_BG" style="font-size: 26px; font-family: Inter, Segoe UI, Kalam, Roboto, Helvetica, Arial, sans-serif; font-weight: 400;" data-final-font-size="26">
        <tspan x="500.0" dy="31.81px">Large ancient fish appearing in the bay area</tspan>
      </text>
      <rect id="ITEM_1_BODY_FRAME" x="500" y="230.0" width="860" height="72" fill="none"/>
      <text x="1460" y="216.0" text-anchor="end" font-size="18" font-weight="800" fill="var(--accent-1)" opacity="0.70">01</text>
    </g>
    <g filter="url(#svg2eb3ceb2-shadow)">
      <line x1="404.0" y1="407.5" x2="420.0" y2="407.5" stroke="var(--accent-2)" stroke-width="5" opacity="0.76" stroke-linecap="round"/>
      <rect id="ITEM_2_BG" x="420.0" y="341.5" width="1085" height="152" rx="22" fill="var(--panel)" fill-opacity="0.97" stroke="var(--accent-2)" stroke-width="2.5"/>
      <rect x="420.0" y="341.5" width="1085" height="152" rx="16" fill="url(#svg2eb3ceb2-universal-surface-sheen)" opacity="0.88"/>
      <rect x="420.0" y="341.5" width="14" height="132" rx="7" fill="var(--accent-2)" fill-opacity="0.90"/>
      <circle id="ITEM_2_PAD" cx="360" cy="407.5" r="46" fill="var(--icon-pad-bg)" opacity="0.95" fill-opacity="0.9" stroke-width="2" stroke="var(--primary-text)"/>
      <circle id="ITEM_2_PAD_INNER" cx="360" cy="407.5" r="35.88" fill="var(--accent-5)" fill-opacity="0.22"/>
      <circle cx="360" cy="407.5" r="38" fill="none" stroke="var(--accent-2)" stroke-width="3" stroke-dasharray="6 4"/>
      <g id="ITEM_2_ICON" transform="translate(324, 371.5)" data-icon-size="72" stroke-dasharray="6 4">
        <g transform="translate(-3.050847457627119,-3.050847457627119) scale(3.2542372881355934)" vector-effect="non-scaling-stroke" stroke-width="2.58" stroke-linecap="round" stroke-linejoin="round" stroke-opacity="1.0">
          <circle cx="12" cy="12" r="10" vector-effect="non-scaling-stroke" fill="none" stroke="#f1f5f9"/>
          <path d="M12 2a14.5 14.5 0 0 0 0 20 14.5 14.5 0 0 0 0-20" vector-effect="non-scaling-stroke" fill="none" stroke="#f1f5f9"/>
          <path d="M2 12h20" vector-effect="non-scaling-stroke" fill="none" stroke="#f1f5f9"/>
        </g>
      </g>
      <text id="ITEM_2_HEAD" x="500.0" y="359.5" text-anchor="start" font-weight="800" font-size="30" fill="var(--primary-text)" data-bg-id="ITEM_2_BG" fill-opacity="1.0" style="font-size: 30px; font-family: Inter, Segoe UI, Kalam, Roboto, Helvetica, Arial, sans-serif; font-weight: 700; letter-spacing:-0.4px;" data-final-font-size="30">
        <tspan x="500.0" dy="27.13px">Wandering Manatees</tspan>
      </text>
      <rect id="ITEM_2_HEAD_FRAME" x="500" y="359.5" width="760" height="32" fill="none"/>
      <text id="ITEM_2_BODY" x="500.0" y="397.5" text-anchor="start" font-size="24" fill="var(--primary-text)" data-bg-id="ITEM_2_BG" style="font-size: 26px; font-family: Inter, Segoe UI, Kalam, Roboto, Helvetica, Arial, sans-serif; font-weight: 400;" data-final-font-size="26">
        <tspan x="500.0" dy="31.81px">Marine mammals documented in the Chesapeake region</tspan>
      </text>
      <rect id="ITEM_2_BODY_FRAME" x="500" y="397.5" width="860" height="72" fill="none"/>
      <text x="1460" y="383.5" text-anchor="end" font-size="18" font-weight="800" fill="var(--accent-2)" opacity="0.70">02</text>
    </g>
    <g filter="url(#svg2eb3ceb2-shadow)">
      <line x1="404.0" y1="575.0" x2="420.0" y2="575.0" stroke="var(--accent-3)" stroke-width="5" opacity="0.76" stroke-linecap="round"/>
      <rect id="ITEM_3_BG" x="420.0" y="509.0" width="1085" height="152" rx="22" fill="var(--panel)" fill-opacity="0.97" stroke="var(--accent-3)" stroke-width="2.5"/>
      <rect x="420.0" y="509.0" width="1085" height="152" rx="16" fill="url(#svg2eb3ceb2-universal-surface-sheen)" opacity="0.88"/>
      <rect x="420.0" y="509.0" width="14" height="132" rx="7" fill="var(--accent-3)" fill-opacity="0.90"/>
      <circle id="ITEM_3_PAD" cx="360" cy="575.0" r="46" fill="var(--icon-pad-bg)" opacity="0.95" fill-opacity="0.9" stroke-width="2" stroke="var(--primary-text)"/>
      <circle id="ITEM_3_PAD_INNER" cx="360" cy="575.0" r="35.88" fill="var(--accent-6)" fill-opacity="0.22"/>
      <circle cx="360" cy="575.0" r="38" fill="none" stroke="var(--accent-3)" stroke-width="3" stroke-dasharray="6 4"/>
      <g id="ITEM_3_ICON" transform="translate(324, 539.0)" data-icon-size="72" stroke-dasharray="6 4">
        <g transform="translate(-5.142857142857146,-5.142857142857143) scale(2.5714285714285716)">
          <path d="M15.6967 2.03125C17.0221 2.09499 18.3076 2.40122 19.507 2.90494C21.5543 2.02739 23.8035 1.77522 25.9967 2.20484L26.3667 2.27966C27.1067 2.42935 27.3967 3.38097 26.8867 3.95835C26.0386 4.92373 25.3484 6.02252 24.8239 7.20603C26.1495 9.09176 26.9453 11.3472 26.9531 13.7211C26.8594 20.9375 21.395 25.2856 15.125 25.2656C14.055 25.2656 13.0367 25.2644 12.0567 24.9844V26.5011C12.0567 28.4517 10.4521 29.7749 8.53653 29.9739C8.25956 30.0027 8.03396 29.7725 8.03727 29.4941L8.07813 26.0547C8.27004 24.7416 9.03654 24.0292 9.56089 23.5419C9.84768 23.2754 10.062 23.0762 10.0703 22.8828C10.0782 22.6996 9.87992 22.5172 9.60397 22.2634C9.05634 21.7597 8.20273 20.9745 8.04688 19.3425V15.8906C8.04688 15.2969 8.57813 15.3359 8.84376 15.4297C10.6905 15.7399 12.0567 17.5479 12.0567 19.4611V21.4511C13.8781 21.4969 14.8709 20.6213 15.9091 19.7055C15.9786 19.6442 16.0483 19.5828 16.1184 19.5214C19.4356 16.8674 19.2978 14.1444 18.5 12.5001C18.0807 11.6358 17.5191 11.1289 16.741 10.8418C16.2103 12.7852 16.5099 14.5264 16.8594 15.5C17.2283 16.5278 16.3113 16.4858 15.9375 16.1718C14.3151 14.809 13.9093 13.1256 14.0319 10.5001C14.0213 10.5001 14.0107 10.5001 14 10.5001H6L5.05793 9.98488C4.72966 8.8925 5.27181 7.53887 6.70422 7.39401C6.77753 7.3866 6.85076 7.38152 6.92243 7.37655C7.36502 7.34586 7.74826 7.31928 7.72448 6.77229C7.72448 4.4289 10.1294 2.02124 12.6767 2.02124L15.6967 2.03125Z" fill="#00A6ED"/>
          <path d="M12.7066 7.4133C13.0969 7.4133 13.4133 7.09692 13.4133 6.70665C13.4133 6.31638 13.0969 6 12.7066 6C12.3164 6 12 6.31638 12 6.70665C12 7.09692 12.3164 7.4133 12.7066 7.4133Z" fill="#1C1C1C"/>
          <path d="M16.4856 12.2617C16.4957 12.2682 16.5057 12.2747 16.5156 12.2812C18.9961 14.4353 17.9705 17.5244 16.1179 19.5219C19.4501 16.8707 20.3334 14.3541 19.3125 12.25C18.7908 11.1748 17.9365 10.5994 16.9117 10.2934C16.6729 10.975 16.5415 11.6389 16.4856 12.2617Z" fill="#AEDDFF"/>
          <path d="M14.0637 9.95598C13.9075 9.95391 13.7508 9.95313 13.5938 9.95312H5.04865C5.27043 10.7345 5.93368 11.3906 7.03125 11.3906C7.44835 11.3906 7.86308 11.3893 8.27321 11.3879C10.4183 11.381 12.4379 11.3744 14.0136 11.5629C14.005 11.0666 14.0238 10.5329 14.0637 9.95598Z" fill="#AEDDFF"/>
        </g>
      </g>
      <text id="ITEM_3_HEAD" x="500.0" y="527.0" text-anchor="start" font-weight="800" font-size="30" fill="var(--primary-text)" data-bg-id="ITEM_3_BG" fill-opacity="1.0" style="font-size: 30px; font-family: Inter, Segoe UI, Kalam, Roboto, Helvetica, Arial, sans-serif; font-weight: 700; letter-spacing:-0.4px;" data-final-font-size="30">
        <tspan x="500.0" dy="27.13px">Dolphins and Whales</tspan>
      </text>
      <rect id="ITEM_3_HEAD_FRAME" x="500" y="527.0" width="760" height="32" fill="none"/>
      <text id="ITEM_3_BODY" x="500.0" y="565.0" text-anchor="start" font-size="24" fill="var(--primary-text)" data-bg-id="ITEM_3_BG" style="font-size: 26px; font-family: Inter, Segoe UI, Kalam, Roboto, Helvetica, Arial, sans-serif; font-weight: 400;" data-final-font-size="26">
        <tspan x="500.0" dy="31.81px">Large marine mammals appearing in unexpected places</tspan>
      </text>
      <rect id="ITEM_3_BODY_FRAME" x="500" y="565.0" width="860" height="72" fill="none"/>
      <text x="1460" y="551.0" text-anchor="end" font-size="18" font-weight="800" fill="var(--accent-3)" opacity="0.70">03</text>
    </g>
    <g filter="url(#svg2eb3ceb2-shadow)">
      <line x1="404.0" y1="742.5" x2="420.0" y2="742.5" stroke="var(--accent-4)" stroke-width="5" opacity="0.76" stroke-linecap="round"/>
      <rect id="ITEM_4_BG" x="420.0" y="676.5" width="1085" height="152" rx="22" fill="var(--panel)" fill-opacity="0.97" stroke="var(--accent-4)" stroke-width="2.5"/>
      <rect x="420.0" y="676.5" width="1085" height="152" rx="16" fill="url(#svg2eb3ceb2-universal-surface-sheen)" opacity="0.88"/>
      <rect x="420.0" y="676.5" width="14" height="132" rx="7" fill="var(--accent-4)" fill-opacity="0.90"/>
      <circle id="ITEM_4_PAD" cx="360" cy="742.5" r="46" fill="var(--icon-pad-bg)" opacity="0.95" fill-opacity="0.9" stroke-width="2" stroke="var(--primary-text)"/>
      <circle id="ITEM_4_PAD_INNER" cx="360" cy="742.5" r="35.88" fill="var(--accent-1)" fill-opacity="0.22"/>
      <circle cx="360" cy="742.5" r="38" fill="none" stroke="var(--accent-4)" stroke-width="3" stroke-dasharray="6 4"/>
      <g id="ITEM_4_ICON" transform="translate(324, 706.5)" data-icon-size="72" stroke-dasharray="6 4">
        <g transform="translate(0.0,-3.552713678800501e-15) scale(5.142857142857143)" vector-effect="non-scaling-stroke" stroke-width="2.58" stroke-linecap="round" stroke-linejoin="round" stroke-opacity="1.0">
          <path id="Ellipse 936" fill="none" d="M4.5 8c0 1.933 -0.89543 3.5 -2 3.5S0.5 9.933 0.5 8s0.89543 -3.5 2 -3.5 2 1.567 2 3.5Z" vector-effect="non-scaling-stroke" stroke="#f1f5f9"/>
          <path id="Ellipse 939" stroke="#f1f5f9" d="M4.5 8c0 1.933 -0.89543 3.5 -2 3.5S0.5 9.933 0.5 8s0.89543 -3.5 2 -3.5 2 1.567 2 3.5Z" vector-effect="non-scaling-stroke" fill="none"/>
          <path id="Ellipse 937" fill="none" d="M11.5 11.5c1.1046 0 2 -1.567 2 -3.5s-0.8954 -3.5 -2 -3.5h-9c1.10457 0 2 1.567 2 3.5s-0.89543 3.5 -2 3.5h9Z" vector-effect="non-scaling-stroke" stroke="#f1f5f9"/>
          <path id="Ellipse 938" stroke="#f1f5f9" d="M11.5 11.5c1.1046 0 2 -1.567 2 -3.5s-0.8954 -3.5 -2 -3.5h-9c1.10457 0 2 1.567 2 3.5s-0.89543 3.5 -2 3.5h9Z" vector-effect="non-scaling-stroke" fill="none"/>
          <path id="Vector 2246" stroke="#f1f5f9" d="m8.5 7 4.8012 0" vector-effect="non-scaling-stroke" fill="none"/>
          <path id="Vector 2247" stroke="#f1f5f9" d="M4.5 9.5H7" vector-effect="non-scaling-stroke" fill="none"/>
          <path id="Vector 2249" stroke="#f1f5f9" d="m7.5 4.5 -2 -2" vector-effect="non-scaling-stroke" fill="none"/>
        </g>
      </g>
      <text id="ITEM_4_HEAD" x="500.0" y="694.5" text-anchor="start" font-weight="800" font-size="30" fill="var(--primary-text)" data-bg-id="ITEM_4_BG" fill-opacity="1.0" style="font-size: 30px; font-family: Inter, Segoe UI, Kalam, Roboto, Helvetica, Arial, sans-serif; font-weight: 700; letter-spacing:-0.4px;" data-final-font-size="30">
        <tspan x="500.0" dy="27.13px">Floating Debris</tspan>
      </text>
      <rect id="ITEM_4_HEAD_FRAME" x="500" y="694.5" width="760" height="32" fill="none"/>
      <text id="ITEM_4_BODY" x="500.0" y="732.5" text-anchor="start" font-size="24" fill="var(--primary-text)" data-bg-id="ITEM_4_BG" style="font-size: 26px; font-family: Inter, Segoe UI, Kalam, Roboto, Helvetica, Arial, sans-serif; font-weight: 400;" data-final-font-size="26">
        <tspan x="500.0" dy="31.81px">Logs and wave patterns creating visual misperceptions</tspan>
      </text>
      <rect id="ITEM_4_BODY_FRAME" x="500" y="732.5" width="860" height="72" fill="none"/>
      <text x="1460" y="718.5" text-anchor="end" font-size="18" font-weight="800" fill="var(--accent-4)" opacity="0.70">04</text>
    </g>
    <g filter="url(#svg2eb3ceb2-shadow)">
      <line x1="404.0" y1="910.0" x2="420.0" y2="910.0" stroke="var(--accent-5)" stroke-width="5" opacity="0.76" stroke-linecap="round"/>
      <rect id="ITEM_5_BG" x="420.0" y="844.0" width="1085" height="152" rx="22" fill="var(--panel)" fill-opacity="0.97" stroke="var(--accent-5)" stroke-width="2.5"/>
      <rect x="420.0" y="844.0" width="1085" height="152" rx="16" fill="url(#svg2eb3ceb2-universal-surface-sheen)" opacity="0.88"/>
      <rect x="420.0" y="844.0" width="14" height="132" rx="7" fill="var(--accent-5)" fill-opacity="0.90"/>
      <circle id="ITEM_5_PAD" cx="360" cy="910.0" r="46" fill="var(--icon-pad-bg)" opacity="0.95" fill-opacity="0.9" stroke-width="2" stroke="var(--primary-text)"/>
      <circle id="ITEM_5_PAD_INNER" cx="360" cy="910.0" r="35.88" fill="var(--accent-2)" fill-opacity="0.22"/>
      <circle cx="360" cy="910.0" r="38" fill="none" stroke="var(--accent-5)" stroke-width="3" stroke-dasharray="6 4"/>
      <g id="ITEM_5_ICON" transform="translate(324, 874.0)" data-icon-size="72" stroke-dasharray="6 4">
        <g transform="translate(-5.142857142857143,-8.67857142857143) scale(2.5714285714285716)">
          <path d="M12 9.5C12 11.9853 9.98528 14 7.5 14C5.01472 14 3 11.9853 3 9.5C3 7.01472 5.01472 5 7.5 5C9.98528 5 12 7.01472 12 9.5Z" fill="#8C5543"/>
          <path d="M29 9.5C29 11.9853 26.9853 14 24.5 14C22.0147 14 20 11.9853 20 9.5C20 7.01472 22.0147 5 24.5 5C26.9853 5 29 7.01472 29 9.5Z" fill="#8C5543"/>
          <path d="M30.0019 20.0707C30.0019 20.0707 30.0019 20.0607 30.0012 20.0438C29.9994 19.5025 29.9481 18.9732 29.8519 18.4588C29.5431 16.3875 28.5963 12.7032 25.6894 9.7213C21.5169 5.44068 16.0013 5.7213 16.0013 5.7213C16.0013 5.7213 10.485 5.44068 6.3125 9.7213C3.40625 12.7032 2.45875 16.3875 2.15 18.4588C2.05375 18.9732 2.0025 19.5032 2.00062 20.045C2.00062 20.0613 2 20.07 2 20.07C2 23.5038 3.98813 26.4725 6.87563 27.8894C6.87563 27.8894 10.0006 29.7207 16.0006 29.7207C22.0006 29.7207 25.1256 27.8894 25.1256 27.8894C28.0138 26.4732 30.0019 23.5044 30.0019 20.0707Z" fill="#A56953"/>
          <path d="M6.3125 9.7213C7.19787 8.81299 8.14374 8.11005 9.08457 7.56622C8.65325 7.21237 8.10143 7 7.5 7C6.11929 7 5 8.11929 5 9.5C5 9.97648 5.1333 10.4218 5.36464 10.8008C5.65484 10.4337 5.97007 10.0726 6.3125 9.7213Z" fill="#F3AD61"/>
          <path d="M25.6894 9.7213C26.0314 10.0722 26.3463 10.4328 26.6363 10.7993C26.867 10.4207 27 9.97587 27 9.5C27 8.11929 25.8807 7 24.5 7C23.8989 7 23.3474 7.21211 22.9162 7.56556C23.8574 8.10948 24.8036 8.81262 25.6894 9.7213Z" fill="#F3AD61"/>
          <path d="M11 21.0533C11 20.2989 11.3731 19.598 11.9875 19.1984C14.4425 17.6005 17.5575 17.6005 20.0125 19.1984C20.6269 19.598 21 20.2989 21 21.0533V21.7933C21 24.6687 18.7612 27 16 27C13.2388 27 11 24.6687 11 21.7933V21.0533Z" fill="#F3AD61"/>
          <path d="M11 15.9687C11 15.4165 11.4477 14.9688 12 14.9688C12.5523 14.9688 13 15.4165 13 15.9688V16.9688C13 17.521 12.5523 17.9688 12 17.9688C11.4477 17.9688 11 17.521 11 16.9688V15.9687Z" fill="#402A32"/>
          <path d="M19 15.9687C19 15.4165 19.4477 14.9688 20 14.9688C20.5523 14.9688 21 15.4165 21 15.9688V16.9688C21 17.521 20.5523 17.9688 20 17.9688C19.4477 17.9688 19 17.521 19 16.9688V15.9687Z" fill="#402A32"/>
          <path d="M15.5256 20.8194L14.5118 19.9857C14.3475 19.85 14.2518 19.6482 14.2518 19.435C14.2518 19.0413 14.5712 18.7219 14.965 18.7219H17.0387C17.4325 18.7219 17.7518 19.0413 17.7518 19.435C17.7518 19.6482 17.6562 19.85 17.4918 19.9857L16.4787 20.8194C16.2018 21.0469 15.8018 21.0469 15.5256 20.8194Z" fill="#402A32"/>
          <path d="M16 22C16.0608 22 16.1202 22.0111 16.1755 22.0319C16.2441 22.0575 16.3043 22.0971 16.3536 22.1465C16.4032 22.196 16.4429 22.2565 16.4685 22.3253C16.4762 22.346 16.4826 22.3672 16.4876 22.3888C16.5719 22.7257 16.6836 23.1343 16.9146 23.4621C17.127 23.7636 17.4409 24.0001 18 24.0001C18.6543 24.0001 19 23.4657 19 23.0001C19 22.724 19.2239 22.5001 19.5 22.5001C19.7761 22.5001 20 22.724 20 23.0001C20 23.8678 19.3457 25.0001 18 25.0001C17.0747 25.0001 16.4719 24.57 16.0971 24.0381C16.0629 23.9895 16.0305 23.94 16 23.8901C15.9695 23.94 15.9371 23.9895 15.9029 24.0381C15.5281 24.57 14.9253 25.0001 14 25.0001C12.6543 25.0001 12 23.8678 12 23.0001C12 22.724 12.2239 22.5001 12.5 22.5001C12.7761 22.5001 13 22.724 13 23.0001C13 23.4657 13.3457 24.0001 14 24.0001C14.5591 24.0001 14.873 23.7636 15.0854 23.4621C15.3164 23.1343 15.4281 22.7257 15.5124 22.3888C15.5175 22.3669 15.5239 22.3455 15.5318 22.3246C15.5574 22.2561 15.597 22.1959 15.6464 22.1465C15.6957 22.0971 15.7559 22.0575 15.8245 22.0319C15.8798 22.0111 15.9392 22 16 22Z" fill="#402A32"/>
        </g>
      </g>
      <text id="ITEM_5_HEAD" x="500.0" y="862.0" text-anchor="start" font-weight="800" font-size="30" fill="var(--primary-text)" data-bg-id="ITEM_5_BG" fill-opacity="1.0" style="font-size: 30px; font-family: Inter, Segoe UI, Kalam, Roboto, Helvetica, Arial, sans-serif; font-weight: 700; letter-spacing:-0.4px;" data-final-font-size="30">
        <tspan x="500.0" dy="27.13px">Black Bears</tspan>
      </text>
      <rect id="ITEM_5_HEAD_FRAME" x="500" y="862.0" width="760" height="32" fill="none"/>
      <text id="ITEM_5_BODY" x="500.0" y="900.0" text-anchor="start" font-size="24" fill="var(--primary-text)" data-bg-id="ITEM_5_BG" style="font-size: 26px; font-family: Inter, Segoe UI, Kalam, Roboto, Helvetica, Arial, sans-serif; font-weight: 400;" data-final-font-size="26">
        <tspan x="500.0" dy="31.81px">Large land animals causing woodland sightings</tspan>
      </text>
      <rect id="ITEM_5_BODY_FRAME" x="500" y="900.0" width="860" height="72" fill="none"/>
      <text x="1460" y="886.0" text-anchor="end" font-size="18" font-weight="800" fill="var(--accent-5)" opacity="0.70">05</text>
    </g>
  </g>
</svg>
