<?xml version='1.0' encoding='utf-8'?>
<svg xmlns="http://www.w3.org/2000/svg" width="1920" height="1080" viewBox="0 0 1920 1080" data-theme="light">
  <style>
        @font-face {
            font-family: 'Inter';
            src: url('assets/fonts/Inter-Regular.ttf') format('truetype');
            font-weight: 400;
            font-style: normal;
            font-display: swap;
        }
        @font-face {
            font-family: 'Inter';
            src: url('assets/fonts/Inter-Bold.ttf') format('truetype');
            font-weight: 600;
            font-style: normal;
            font-display: swap;
        }
        @font-face {
            font-family: 'Inter';
            src: url('assets/fonts/Inter-Bold.ttf') format('truetype');
            font-weight: 800;
            font-style: normal;
            font-display: swap;
        }
        
:root {
    --background: #f8fafc;
    --panel: #ffffff;
    --primary-text: #0f172a;
    --muted-text: #64748b;
    --inverse-text: #ffffff;
    --border: #e2e8f0;
    --shadow-color: #000000;
    --icon-pad-bg: #1e293b;
    --art-glow: #0891b2;
    --art-glow-opacity: 0.10;
    --art-sheen: #ffffff;
    --art-sheen-opacity: 0.34;
    --art-shadow: #0f172a;
    --art-shadow-opacity: 0.14;
    --art-muted-line: #94a3b8;
    --art-panel-tint: #f1f5f9;
    --font-family: 'Inter', 'Segoe UI', 'Kalam', Roboto, Helvetica, Arial, sans-serif;
    --radius-xl: 16px;
    --font-family-headline: 'Inter', 'Segoe UI', 'Kalam', Roboto, Helvetica, Arial, sans-serif;
    --font-family-body: 'Inter', 'Segoe UI', 'Kalam', Roboto, Helvetica, Arial, sans-serif;
    --font-heading: 'Inter', 'Segoe UI', 'Kalam', Roboto, Helvetica, Arial, sans-serif;
    --font-body: 'Inter', 'Segoe UI', 'Kalam', Roboto, Helvetica, Arial, sans-serif;
    --font-size-h1: 56px;
    --font-size-h2: 40px;
    --font-size-h3: 28px;
    --font-size-body: 24px;
    --font-size-caption: 18px;
    --secondary-text: var(--muted-text);
    --panel-border: var(--border);
    --font-weight-normal: 400;
    --font-weight-medium: 500;
    --font-weight-semibold: 600;
    --font-weight-bold: 700;
    --spacing-gutter-pct: 0.07;
    --spacing-top-pct: 0.15;
    --spacing-bottom-pct: 0.07;
    --spacing-title-y-pct: 0.055;
    --accent-1: #0891b2;
    --accent-2: #db2777;
    --accent-3: #ca8a04;
    --accent-4: #65a30d;
    --accent-5: #ea580c;
    --accent-6: #9333ea;
}
:root[data-theme="dark"] {
    --background: #0f172a;
    --panel: #1e293b;
    --primary-text: #f1f5f9;
    --muted-text: #94a3b8;
    --inverse-text: #0f172a;
    --border: #334155;
    --shadow-color: #000000;
    --icon-pad-bg: #1e293b;
    --art-glow: #7dd3fc;
    --art-glow-opacity: 0.18;
    --art-sheen: #ffffff;
    --art-sheen-opacity: 0.18;
    --art-shadow: #000000;
    --art-shadow-opacity: 0.28;
    --art-muted-line: #64748b;
    --art-panel-tint: #1e293b;
    --accent-1: #22d3ee;
    --accent-2: #f472b6;
    --accent-3: #facc15;
    --accent-4: #a3e635;
    --accent-5: #fb923c;
    --accent-6: #c084fc;
}
:root[data-theme="light"] {
    --background: #f8fafc;
    --panel: #ffffff;
    --primary-text: #0f172a;
    --muted-text: #64748b;
    --inverse-text: #ffffff;
    --border: #e2e8f0;
    --shadow-color: #000000;
    --icon-pad-bg: #1e293b;
    --art-glow: #0891b2;
    --art-glow-opacity: 0.10;
    --art-sheen: #ffffff;
    --art-sheen-opacity: 0.34;
    --art-shadow: #0f172a;
    --art-shadow-opacity: 0.14;
    --art-muted-line: #94a3b8;
    --art-panel-tint: #f1f5f9;
    --accent-1: #0891b2;
    --accent-2: #db2777;
    --accent-3: #ca8a04;
    --accent-4: #65a30d;
    --accent-5: #ea580c;
    --accent-6: #9333ea;
}</style>
  <rect x="0" y="0" width="1.92E+3" height="1.08E+3" fill="#252a34" stroke="none" id="programmatic_background"/>
  <line id="HEADER_DECOR" x1="960.0" x2="1080.0" y1="135.0" y2="135.0" stroke="var(--accent-1)" stroke-width="6" stroke-linecap="round"/>
  <defs>
    <pattern id="svg9c7a8531-napkin-hatch" patternUnits="userSpaceOnUse" width="12" height="12">
      <path d="M -3 12 L 12 -3 M 0 15 L 15 0" fill="none" stroke="var(--primary-text)" stroke-width="1" stroke-opacity="0.05"/>
    </pattern>
    <filter id="svg9c7a8531-soft-shadow" x="-30%" y="-30%" width="160%" height="160%">
      <feDropShadow dx="0" dy="3" stdDeviation="6" flood-color="#000000" flood-opacity="0.20"/>
    </filter>
    <radialGradient id="svg9c7a8531-universal-edge-vignette" cx="50%" cy="50%" r="72%">
      <stop offset="0%" stop-color="var(--background)" stop-opacity="0"/>
      <stop offset="72%" stop-color="var(--background)" stop-opacity="0.12"/>
      <stop offset="100%" stop-color="var(--primary-text)" stop-opacity="0.08"/>
    </radialGradient>
    <linearGradient id="svg9c7a8531-universal-surface-sheen" x1="0%" y1="0%" x2="100%" y2="100%">
      <stop offset="0%" stop-color="var(--art-sheen)" stop-opacity="var(--art-sheen-opacity)"/>
      <stop offset="46%" stop-color="var(--art-sheen)" stop-opacity="0.035"/>
      <stop offset="100%" stop-color="var(--art-panel-tint)" stop-opacity="0.14"/>
    </linearGradient>
    <radialGradient id="svg9c7a8531-universal-icon-aura" cx="50%" cy="42%" r="64%">
      <stop offset="0%" stop-color="var(--art-glow)" stop-opacity="var(--art-glow-opacity)"/>
      <stop offset="100%" stop-color="var(--background)" stop-opacity="0"/>
    </radialGradient>
    <filter id="svg9c7a8531-text-glow" x="-20%" y="-20%" width="140%" height="140%">
      <feDropShadow dx="0" dy="0" stdDeviation="2" flood-color="#000000" flood-opacity="0.4"/>
    </filter>
    <filter id="svg9c7a8531-shadow" x="-30%" y="-30%" width="160%" height="160%">
      <feDropShadow dx="0" dy="2" stdDeviation="3" flood-color="#000000" flood-opacity="0.08"/>
      <feDropShadow dx="0" dy="6" stdDeviation="10" flood-color="#000000" flood-opacity="0.12"/>
    </filter>
    <marker id="svg9c7a8531-arrowhead" markerWidth="10" markerHeight="7" refX="9" refY="3.5" orient="auto" markerUnits="strokeWidth">
      <polygon points="0 0, 10 3.5, 0 7" fill="var(--muted-text)" opacity="0.6"/>
    </marker>
  </defs>
  <rect id="CANVAS_BG" width="100%" height="100%" fill="var(--background)"/>
  <rect width="100%" height="100%" fill="url(#svg9c7a8531-napkin-hatch)"/>
  <rect id="UNIVERSAL_EDGE_VIGNETTE" width="100%" height="100%" fill="url(#svg9c7a8531-universal-edge-vignette)" opacity="0.62"/>
  <text id="TITLE" x="960.0" y="59" text-anchor="middle" font-size="56" font-weight="800" fill="#0f172a" style="font-size: 60px; font-family: Inter, Segoe UI, Kalam, Roboto, Helvetica, Arial, sans-serif; font-weight: 700; letter-spacing:-1.2px;" data-final-font-size="60">
    <tspan x="960.0" dy="68.00px">Flessie Descriptions vs. Natural Explanations</tspan>
  </text>
  <rect id="TITLE_FRAME" x="134" y="59" width="1652" height="103" fill="none"/>
  <line x1="687.0" y1="434.0" x2="768.0" y2="434.0" stroke="var(--muted-text)" stroke-width="4" stroke-dasharray="10 9" opacity="0.8"/>
  <circle cx="727.5" cy="434.0" r="34" fill="var(--panel)" stroke="var(--muted-text)" stroke-width="2"/>
  <text x="727.5" y="444.0" text-anchor="middle" font-size="34" font-weight="900" fill="var(--muted-text)">VS</text>
  <line x1="1152.0" y1="434.0" x2="1233.0" y2="434.0" stroke="var(--muted-text)" stroke-width="4" stroke-dasharray="10 9" opacity="0.8"/>
  <circle cx="1192.5" cy="434.0" r="34" fill="var(--panel)" stroke="var(--muted-text)" stroke-width="2"/>
  <text x="1192.5" y="444.0" text-anchor="middle" font-size="34" font-weight="900" fill="var(--muted-text)">VS</text>
  <line x1="882.0" y1="824.0" x2="1038.0" y2="824.0" stroke="var(--muted-text)" stroke-width="4" stroke-dasharray="10 9" opacity="0.8"/>
  <circle cx="960.0" cy="824.0" r="34" fill="var(--panel)" stroke="var(--muted-text)" stroke-width="2"/>
  <text x="960.0" y="834.0" text-anchor="middle" font-size="34" font-weight="900" fill="var(--muted-text)">VS</text>
  <g transform="translate(495.0, 280.0)" filter="url(#svg9c7a8531-soft-shadow)">
    <rect id="ITEM_1_BG" x="-200.0" y="0" width="400.0" height="360" rx="26" fill="var(--panel)" fill-opacity="0.95" stroke="var(--accent-1)" stroke-width="3"/>
    <rect x="-184.0" y="12" width="368.0" height="8" rx="4" fill="var(--accent-1)" fill-opacity="0.55"/>
    <circle id="ITEM_1_PAD" cx="0" cy="74" r="46" fill="var(--icon-pad-bg)" stroke="var(--primary-text)" opacity="0.9" fill-opacity="0.9" stroke-width="2"/>
    <circle id="ITEM_1_PAD_INNER" cx="0" cy="74" r="35.88" fill="var(--accent-3)" fill-opacity="0.22"/>
    <circle cx="0" cy="74" r="36" fill="none" stroke="var(--accent-1)" stroke-width="3" stroke-dasharray="6 4"/>
    <g id="ITEM_1_ICON" transform="translate(-34, 40)" data-icon-size="68" stroke-dasharray="6 4">
      <g transform="translate(-4.920677966101696,-4.920677966101698) scale(3.243389830508475)" vector-effect="non-scaling-stroke" stroke-width="2.53" stroke-linecap="round" stroke-linejoin="round" stroke-opacity="1.0">
        <ellipse cx="12" cy="5" rx="9" ry="3" vector-effect="non-scaling-stroke" fill="none" stroke="#f1f5f9"/>
        <path d="M3 5V19A9 3 0 0 0 21 19V5" vector-effect="non-scaling-stroke" fill="none" stroke="#f1f5f9"/>
        <path d="M3 12A9 3 0 0 0 21 12" vector-effect="non-scaling-stroke" fill="none" stroke="#f1f5f9"/>
      </g>
    </g>
    <text id="ITEM_1_HEAD" x="0.0" y="138.0" text-anchor="middle" font-size="44" font-weight="800" fill="var(--primary-text)" data-bg-id="ITEM_1_BG" fill-opacity="1.0" style="font-size: 30px; font-family: Inter, Segoe UI, Kalam, Roboto, Helvetica, Arial, sans-serif; font-weight: 700; letter-spacing:-0.4px;" data-final-font-size="30">
      <tspan x="0.0" dy="42.25px">Serpent Morphology</tspan>
    </text>
    <rect id="ITEM_1_HEAD_FRAME" x="-165.0" y="138" width="330.0" height="68" fill="none"/>
    <text id="ITEM_1_BODY" x="0.0" y="206.0" text-anchor="middle" font-size="27" fill="var(--primary-text)" data-bg-id="ITEM_1_BG" style="font-size: 26px; font-family: Inter, Segoe UI, Kalam, Roboto, Helvetica, Arial, sans-serif; font-weight: 400;" data-final-font-size="26">
      <tspan x="0.0" dy="39.64px">Witnesses describe 40-foot</tspan>
      <tspan x="0.0" dy="29.90px">eel-shaped bodies with humps</tspan>
    </text>
    <rect id="ITEM_1_BODY_FRAME" x="-190.0" y="206" width="380" height="154" fill="none"/>
  </g>
  <g transform="translate(960.0, 280.0)" filter="url(#svg9c7a8531-soft-shadow)">
    <rect id="ITEM_2_BG" x="-200.0" y="0" width="400.0" height="360" rx="26" fill="var(--panel)" fill-opacity="0.95" stroke="var(--accent-2)" stroke-width="3"/>
    <rect x="-184.0" y="12" width="368.0" height="8" rx="4" fill="var(--accent-2)" fill-opacity="0.55"/>
    <circle id="ITEM_2_PAD" cx="0" cy="74" r="46" fill="var(--icon-pad-bg)" stroke="var(--primary-text)" opacity="0.9" fill-opacity="0.9" stroke-width="2"/>
    <circle id="ITEM_2_PAD_INNER" cx="0" cy="74" r="35.88" fill="var(--accent-4)" fill-opacity="0.22"/>
    <circle cx="0" cy="74" r="36" fill="none" stroke="var(--accent-2)" stroke-width="3" stroke-dasharray="6 4"/>
    <g id="ITEM_2_ICON" transform="translate(-34, 40)" data-icon-size="68" stroke-dasharray="6 4">
      <g transform="translate(-7.005714285714289,-11.811071428571436) scale(2.562857142857143)">
        <path d="M16.4063 5.86579C13.7196 5.86579 12.6138 8.38265 12.5642 10.6875H11.6562C7.71325 10.6875 4.386 13.3238 3.34101 16.93C3.24997 16.9043 3.15393 16.8906 3.05469 16.8906C2.4722 16.8906 2 17.3628 2 17.9453C2 18.4103 2.30089 18.805 2.71858 18.9453C2.30089 19.0856 2 19.4803 2 19.9453C2 20.5278 2.4722 21 3.05469 21C3.08932 21 3.12355 20.9983 3.15732 20.9951C3.92819 24.986 7.44024 28 11.6563 28H13.4398C13.476 28.965 13.9493 29.9973 15.071 29.9973H17.2755C17.3817 30.0155 17.5836 29.9508 17.5411 29.5463C17.4984 29.1401 17.31 28.3105 16.3079 28H16.3438C20.7284 28 24.3516 24.7401 24.9219 20.5117V24.688C24.9219 26.9377 29.8438 29.3129 29.8438 27.1254V22.6252C29.8438 21.42 27.8051 19.365 26.5403 19.3439C27.8051 19.3227 29.8438 17.2678 29.8438 16.0625V11.5623C29.8438 9.37484 24.9219 11.75 24.9219 13.9998V18.1758C24.4203 14.4568 21.5569 11.4869 17.8911 10.8254C21.509 10.5504 22.1007 8.05045 22.2188 6.92694C22.3188 5.97513 21.8438 5.82292 21.5938 5.86579H16.4063Z" fill="#00A6ED"/>
        <path d="M11.7261 13.8039C11.9035 13.5922 12.2189 13.5644 12.4305 13.7418C15.4796 16.2969 15.6411 20.7905 12.4726 24.1405C12.2829 24.3411 11.9664 24.3499 11.7658 24.1601C11.5652 23.9704 11.5564 23.6539 11.7461 23.4533C14.5777 20.4595 14.3329 16.6406 11.7882 14.5082C11.5766 14.3309 11.5488 14.0155 11.7261 13.8039Z" fill="#0074BA"/>
        <path d="M9.07812 17.5C9.07812 17.8365 8.8053 18.1094 8.46875 18.1094C8.1322 18.1094 7.85938 17.8365 7.85938 17.5C7.85938 17.1635 8.1322 16.8906 8.46875 16.8906C8.8053 16.8906 9.07812 17.1635 9.07812 17.5Z" fill="#1C1C1C"/>
      </g>
    </g>
    <text id="ITEM_2_HEAD" x="0.0" y="138.0" text-anchor="middle" font-size="44" font-weight="800" fill="var(--primary-text)" data-bg-id="ITEM_2_BG" fill-opacity="1.0" style="font-size: 30px; font-family: Inter, Segoe UI, Kalam, Roboto, Helvetica, Arial, sans-serif; font-weight: 700; letter-spacing:-0.4px;" data-final-font-size="30">
      <tspan x="0.0" dy="42.25px">Sturgeon Theory</tspan>
    </text>
    <rect id="ITEM_2_HEAD_FRAME" x="-165.0" y="138" width="330.0" height="68" fill="none"/>
    <text id="ITEM_2_BODY" x="0.0" y="206.0" text-anchor="middle" font-size="27" fill="var(--primary-text)" data-bg-id="ITEM_2_BG" style="font-size: 26px; font-family: Inter, Segoe UI, Kalam, Roboto, Helvetica, Arial, sans-serif; font-weight: 400;" data-final-font-size="26">
      <tspan x="0.0" dy="39.64px">Ancient fish with bony plates</tspan>
      <tspan x="0.0" dy="29.90px">and prehistoric profiles</tspan>
    </text>
    <rect id="ITEM_2_BODY_FRAME" x="-190.0" y="206" width="380" height="154" fill="none"/>
  </g>
  <g transform="translate(1425.0, 280.0)" filter="url(#svg9c7a8531-soft-shadow)">
    <rect id="ITEM_3_BG" x="-200.0" y="0" width="400.0" height="360" rx="26" fill="var(--panel)" fill-opacity="0.95" stroke="var(--accent-3)" stroke-width="3"/>
    <rect x="-184.0" y="12" width="368.0" height="8" rx="4" fill="var(--accent-3)" fill-opacity="0.55"/>
    <circle id="ITEM_3_PAD" cx="0" cy="74" r="46" fill="var(--icon-pad-bg)" stroke="var(--primary-text)" opacity="0.9" fill-opacity="0.9" stroke-width="2"/>
    <circle id="ITEM_3_PAD_INNER" cx="0" cy="74" r="35.88" fill="var(--accent-5)" fill-opacity="0.22"/>
    <circle cx="0" cy="74" r="36" fill="none" stroke="var(--accent-3)" stroke-width="3" stroke-dasharray="6 4"/>
    <g id="ITEM_3_ICON" transform="translate(-34, 40)" data-icon-size="68" stroke-dasharray="6 4">
      <g transform="translate(-1.8800000000000026,-1.8800000000000043) scale(5.125714285714286)" vector-effect="non-scaling-stroke" stroke-width="2.53" stroke-linecap="round" stroke-linejoin="round" stroke-opacity="1.0">
        <path id="Ellipse 936" fill="none" d="M4.5 8c0 1.933 -0.89543 3.5 -2 3.5S0.5 9.933 0.5 8s0.89543 -3.5 2 -3.5 2 1.567 2 3.5Z" vector-effect="non-scaling-stroke" stroke="#f1f5f9"/>
        <path id="Ellipse 939" stroke="#f1f5f9" d="M4.5 8c0 1.933 -0.89543 3.5 -2 3.5S0.5 9.933 0.5 8s0.89543 -3.5 2 -3.5 2 1.567 2 3.5Z" vector-effect="non-scaling-stroke" fill="none"/>
        <path id="Ellipse 937" fill="none" d="M11.5 11.5c1.1046 0 2 -1.567 2 -3.5s-0.8954 -3.5 -2 -3.5h-9c1.10457 0 2 1.567 2 3.5s-0.89543 3.5 -2 3.5h9Z" vector-effect="non-scaling-stroke" stroke="#f1f5f9"/>
        <path id="Ellipse 938" stroke="#f1f5f9" d="M11.5 11.5c1.1046 0 2 -1.567 2 -3.5s-0.8954 -3.5 -2 -3.5h-9c1.10457 0 2 1.567 2 3.5s-0.89543 3.5 -2 3.5h9Z" vector-effect="non-scaling-stroke" fill="none"/>
        <path id="Vector 2246" stroke="#f1f5f9" d="m8.5 7 4.8012 0" vector-effect="non-scaling-stroke" fill="none"/>
        <path id="Vector 2247" stroke="#f1f5f9" d="M4.5 9.5H7" vector-effect="non-scaling-stroke" fill="none"/>
        <path id="Vector 2249" stroke="#f1f5f9" d="m7.5 4.5 -2 -2" vector-effect="non-scaling-stroke" fill="none"/>
      </g>
    </g>
    <text id="ITEM_3_HEAD" x="0.0" y="138.0" text-anchor="middle" font-size="44" font-weight="800" fill="var(--primary-text)" data-bg-id="ITEM_3_BG" fill-opacity="1.0" style="font-size: 30px; font-family: Inter, Segoe UI, Kalam, Roboto, Helvetica, Arial, sans-serif; font-weight: 700; letter-spacing:-0.4px;" data-final-font-size="30">
      <tspan x="0.0" dy="42.25px">Floating Debris</tspan>
    </text>
    <rect id="ITEM_3_HEAD_FRAME" x="-165.0" y="138" width="330.0" height="68" fill="none"/>
    <text id="ITEM_3_BODY" x="0.0" y="206.0" text-anchor="middle" font-size="27" fill="var(--primary-text)" data-bg-id="ITEM_3_BG" style="font-size: 26px; font-family: Inter, Segoe UI, Kalam, Roboto, Helvetica, Arial, sans-serif; font-weight: 400;" data-final-font-size="26">
      <tspan x="0.0" dy="39.64px">Submerged trees and logs</tspan>
      <tspan x="0.0" dy="29.90px">bobbing in lake currents</tspan>
    </text>
    <rect id="ITEM_3_BODY_FRAME" x="-190.0" y="206" width="380" height="154" fill="none"/>
  </g>
  <g transform="translate(690.0, 670.0)" filter="url(#svg9c7a8531-soft-shadow)">
    <rect id="ITEM_4_BG" x="-200.0" y="0" width="400.0" height="360" rx="26" fill="var(--panel)" fill-opacity="0.95" stroke="var(--accent-4)" stroke-width="3"/>
    <rect x="-184.0" y="12" width="368.0" height="8" rx="4" fill="var(--accent-4)" fill-opacity="0.55"/>
    <circle id="ITEM_4_PAD" cx="0" cy="74" r="46" fill="var(--icon-pad-bg)" stroke="var(--primary-text)" opacity="0.9" fill-opacity="0.9" stroke-width="2"/>
    <circle id="ITEM_4_PAD_INNER" cx="0" cy="74" r="35.88" fill="var(--accent-6)" fill-opacity="0.22"/>
    <circle cx="0" cy="74" r="36" fill="none" stroke="var(--accent-4)" stroke-width="3" stroke-dasharray="6 4"/>
    <g id="ITEM_4_ICON" transform="translate(-34, 40)" data-icon-size="68" stroke-dasharray="6 4">
      <g transform="translate(-8.524444444444448,-9.521111111111118) scale(3.543703703703704)" vector-effect="non-scaling-stroke" fill="#f1f5f9" fill-opacity="1.0" stroke="none">
        <path fill="#f1f5f9" d="M20 12c-1.39 0-2.78-.47-4-1.33c-2.44 1.71-5.56 1.71-8 0C6.78 11.53 5.39 12 4 12H2v2h2c1.37 0 2.74-.35 4-1c2.5 1.3 5.5 1.3 8 0c1.26.65 2.62 1 4 1h2v-2" vector-effect="non-scaling-stroke" stroke="none"/>
      </g>
    </g>
    <text id="ITEM_4_HEAD" x="0.0" y="138.0" text-anchor="middle" font-size="44" font-weight="800" fill="var(--accent-6)" data-bg-id="ITEM_4_BG" fill-opacity="1.0" style="font-size: 30px; font-family: Inter, Segoe UI, Kalam, Roboto, Helvetica, Arial, sans-serif; font-weight: 700; letter-spacing:-0.4px;" data-final-font-size="30">
      <tspan x="0.0" dy="42.25px">Wave Dynamics</tspan>
    </text>
    <rect id="ITEM_4_HEAD_FRAME" x="-165.0" y="138" width="330.0" height="68" fill="none"/>
    <text id="ITEM_4_BODY" x="0.0" y="206.0" text-anchor="middle" font-size="27" fill="var(--primary-text)" data-bg-id="ITEM_4_BG" style="font-size: 26px; font-family: Inter, Segoe UI, Kalam, Roboto, Helvetica, Arial, sans-serif; font-weight: 400;" data-final-font-size="26">
      <tspan x="0.0" dy="39.64px">Boat wakes and wind-driven</tspan>
      <tspan x="0.0" dy="29.90px">lines mimic moving backs</tspan>
    </text>
    <rect id="ITEM_4_BODY_FRAME" x="-190.0" y="206" width="380" height="154" fill="none"/>
  </g>
  <g transform="translate(1230.0, 670.0)" filter="url(#svg9c7a8531-soft-shadow)">
    <rect id="ITEM_5_BG" x="-200.0" y="0" width="400.0" height="360" rx="26" fill="var(--panel)" fill-opacity="0.95" stroke="var(--accent-5)" stroke-width="3"/>
    <rect x="-184.0" y="12" width="368.0" height="8" rx="4" fill="var(--accent-5)" fill-opacity="0.55"/>
    <circle id="ITEM_5_PAD" cx="0" cy="74" r="46" fill="var(--icon-pad-bg)" stroke="var(--primary-text)" opacity="0.9" fill-opacity="0.9" stroke-width="2"/>
    <circle id="ITEM_5_PAD_INNER" cx="0" cy="74" r="35.88" fill="var(--accent-1)" fill-opacity="0.22"/>
    <circle cx="0" cy="74" r="36" fill="none" stroke="var(--accent-5)" stroke-width="3" stroke-dasharray="6 4"/>
    <g id="ITEM_5_ICON" transform="translate(-34, 40)" data-icon-size="68" stroke-dasharray="6 4">
      <g transform="translate(-5.055221238938056,-4.737699115044254) scale(2.540176991150443)">
        <path d="M14.14 2C14.14 1.58579 13.8042 1.25 13.39 1.25C12.9758 1.25 12.64 1.58579 12.64 2V6C12.64 6.41421 12.9758 6.75 13.39 6.75C13.8042 6.75 14.14 6.41421 14.14 6V2Z" fill="#F9C23C"/>
        <path d="M5.58032 4.12964C5.28742 3.83675 4.81255 3.83675 4.51966 4.12964C4.22676 4.42254 4.22676 4.89741 4.51966 5.1903L7.62966 8.3003C7.92255 8.5932 8.39742 8.5932 8.69032 8.3003C8.98321 8.00741 8.98321 7.53254 8.69032 7.23964L5.58032 4.12964Z" fill="#F9C23C"/>
        <path d="M1.25 13.14C1.25 12.7258 1.58579 12.39 2 12.39H5.89C6.30421 12.39 6.64 12.7258 6.64 13.14C6.64 13.5542 6.30421 13.89 5.89 13.89H2C1.58579 13.89 1.25 13.5542 1.25 13.14Z" fill="#F9C23C"/>
        <path d="M17.0866 7.05107C17.9184 7.88288 16.4179 10.7321 13.735 13.415C11.0521 16.0979 8.20289 17.5984 7.37108 16.7666C6.53927 15.9348 8.03986 13.0856 10.7227 10.4027C13.4056 7.71985 16.2548 6.21927 17.0866 7.05107Z" fill="#F9C23C"/>
        <path d="M20.6699 14.69L28.0899 22.11C29.6799 23.7 29.6699 26.3 28.0599 27.91C26.4499 29.52 23.8499 29.53 22.2599 27.94L14.7099 20.39C12.7199 20.61 10.6499 19.97 9.12988 18.44L12.8199 12.5L18.7599 8.81C20.3699 10.42 20.9999 12.62 20.6699 14.69Z" fill="#B4ACBC"/>
        <path d="M7.05986 17.72L7.91986 18.58C8.26986 18.93 8.84986 18.93 9.19986 18.58L18.8999 8.87999C19.2499 8.52999 19.2499 7.94999 18.8999 7.59999L18.0399 6.74999C17.6899 6.39999 17.1099 6.39999 16.7599 6.74999L7.05986 16.45C6.70986 16.8 6.70986 17.37 7.05986 17.72Z" fill="#321B41"/>
        <path d="M18.2302 19.09L19.4402 20.3C19.7502 20.61 20.2702 20.61 20.5802 20.3L20.6102 20.27C20.9202 19.96 20.9202 19.44 20.6102 19.13L19.4002 17.92C19.0902 17.61 18.5702 17.61 18.2602 17.92L18.2302 17.95C17.9102 18.26 17.9102 18.77 18.2302 19.09Z" fill="#F4F4F4"/>
      </g>
    </g>
    <text id="ITEM_5_HEAD" x="0.0" y="138.0" text-anchor="middle" font-size="44" font-weight="800" fill="var(--primary-text)" data-bg-id="ITEM_5_BG" fill-opacity="1.0" style="font-size: 30px; font-family: Inter, Segoe UI, Kalam, Roboto, Helvetica, Arial, sans-serif; font-weight: 700; letter-spacing:-0.4px;" data-final-font-size="30">
      <tspan x="0.0" dy="42.25px">Optical Effects</tspan>
    </text>
    <rect id="ITEM_5_HEAD_FRAME" x="-165.0" y="138" width="330.0" height="68" fill="none"/>
    <text id="ITEM_5_BODY" x="0.0" y="206.0" text-anchor="middle" font-size="27" fill="var(--primary-text)" data-bg-id="ITEM_5_BG" style="font-size: 26px; font-family: Inter, Segoe UI, Kalam, Roboto, Helvetica, Arial, sans-serif; font-weight: 400;" data-final-font-size="26">
      <tspan x="0.0" dy="39.64px">Low-angle sunlight and glare</tspan>
      <tspan x="0.0" dy="29.90px">create deceptive dark shapes</tspan>
    </text>
    <rect id="ITEM_5_BODY_FRAME" x="-190.0" y="206" width="380" height="154" fill="none"/>
  </g>
</svg>
