<?xml version='1.0' encoding='utf-8'?>
<svg xmlns="http://www.w3.org/2000/svg" width="1920" height="1080" viewBox="0 0 1920 1080" data-theme="light">
  <style>
        @font-face {
            font-family: 'Inter';
            src: url('assets/fonts/Inter-Regular.ttf') format('truetype');
            font-weight: 400;
            font-style: normal;
            font-display: swap;
        }
        @font-face {
            font-family: 'Inter';
            src: url('assets/fonts/Inter-Bold.ttf') format('truetype');
            font-weight: 600;
            font-style: normal;
            font-display: swap;
        }
        @font-face {
            font-family: 'Inter';
            src: url('assets/fonts/Inter-Bold.ttf') format('truetype');
            font-weight: 800;
            font-style: normal;
            font-display: swap;
        }
        
:root {
    --background: #f8fafc;
    --panel: #ffffff;
    --primary-text: #0f172a;
    --muted-text: #64748b;
    --inverse-text: #ffffff;
    --border: #e2e8f0;
    --shadow-color: #000000;
    --icon-pad-bg: #1e293b;
    --art-glow: #0891b2;
    --art-glow-opacity: 0.10;
    --art-sheen: #ffffff;
    --art-sheen-opacity: 0.34;
    --art-shadow: #0f172a;
    --art-shadow-opacity: 0.14;
    --art-muted-line: #94a3b8;
    --art-panel-tint: #f1f5f9;
    --font-family: 'Inter', 'Segoe UI', 'Kalam', Roboto, Helvetica, Arial, sans-serif;
    --radius-xl: 16px;
    --font-family-headline: 'Inter', 'Segoe UI', 'Kalam', Roboto, Helvetica, Arial, sans-serif;
    --font-family-body: 'Inter', 'Segoe UI', 'Kalam', Roboto, Helvetica, Arial, sans-serif;
    --font-heading: 'Inter', 'Segoe UI', 'Kalam', Roboto, Helvetica, Arial, sans-serif;
    --font-body: 'Inter', 'Segoe UI', 'Kalam', Roboto, Helvetica, Arial, sans-serif;
    --font-size-h1: 56px;
    --font-size-h2: 40px;
    --font-size-h3: 28px;
    --font-size-body: 24px;
    --font-size-caption: 18px;
    --secondary-text: var(--muted-text);
    --panel-border: var(--border);
    --font-weight-normal: 400;
    --font-weight-medium: 500;
    --font-weight-semibold: 600;
    --font-weight-bold: 700;
    --spacing-gutter-pct: 0.07;
    --spacing-top-pct: 0.15;
    --spacing-bottom-pct: 0.07;
    --spacing-title-y-pct: 0.055;
    --accent-1: #d97706;
    --accent-2: #ea580c;
    --accent-3: #dc2626;
    --accent-4: #65a30d;
    --accent-5: #16a34a;
    --accent-6: #92400e;
}
:root[data-theme="dark"] {
    --background: #0f172a;
    --panel: #1e293b;
    --primary-text: #f1f5f9;
    --muted-text: #94a3b8;
    --inverse-text: #0f172a;
    --border: #334155;
    --shadow-color: #000000;
    --icon-pad-bg: #1e293b;
    --art-glow: #7dd3fc;
    --art-glow-opacity: 0.18;
    --art-sheen: #ffffff;
    --art-sheen-opacity: 0.18;
    --art-shadow: #000000;
    --art-shadow-opacity: 0.28;
    --art-muted-line: #64748b;
    --art-panel-tint: #1e293b;
    --accent-1: #fbbf24;
    --accent-2: #fb923c;
    --accent-3: #f87171;
    --accent-4: #a3e635;
    --accent-5: #4ade80;
    --accent-6: #d4a574;
}
:root[data-theme="light"] {
    --background: #f8fafc;
    --panel: #ffffff;
    --primary-text: #0f172a;
    --muted-text: #64748b;
    --inverse-text: #ffffff;
    --border: #e2e8f0;
    --shadow-color: #000000;
    --icon-pad-bg: #1e293b;
    --art-glow: #0891b2;
    --art-glow-opacity: 0.10;
    --art-sheen: #ffffff;
    --art-sheen-opacity: 0.34;
    --art-shadow: #0f172a;
    --art-shadow-opacity: 0.14;
    --art-muted-line: #94a3b8;
    --art-panel-tint: #f1f5f9;
    --accent-1: #d97706;
    --accent-2: #ea580c;
    --accent-3: #dc2626;
    --accent-4: #65a30d;
    --accent-5: #16a34a;
    --accent-6: #92400e;
}</style>
  <rect x="0" y="0" width="1.92E+3" height="1.08E+3" fill="#252a34" stroke="none" id="programmatic_background"/>
  <line id="HEADER_DECOR" x1="960.0" x2="1080.0" y1="95.0" y2="95.0" stroke="var(--accent-1)" stroke-width="6" stroke-linecap="round"/>
  <defs>
    <pattern id="svg0d0d60e5-napkin-hatch" patternUnits="userSpaceOnUse" width="12" height="12">
      <path d="M -3 12 L 12 -3 M 0 15 L 15 0" fill="none" stroke="var(--primary-text)" stroke-width="1" stroke-opacity="0.05"/>
    </pattern>
    <filter id="svg0d0d60e5-shadow" x="-30%" y="-30%" width="160%" height="160%">
      <feDropShadow dx="0" dy="4" stdDeviation="5" flood-color="#000000" flood-opacity="0.15"/>
    </filter>
    <filter id="svg0d0d60e5-text-glow" x="-20%" y="-20%" width="140%" height="140%">
      <feDropShadow dx="0" dy="0" stdDeviation="3" flood-color="#000000" flood-opacity="0.8"/>
    </filter>
    <radialGradient id="svg0d0d60e5-universal-edge-vignette" cx="50%" cy="50%" r="72%">
      <stop offset="0%" stop-color="var(--background)" stop-opacity="0"/>
      <stop offset="72%" stop-color="var(--background)" stop-opacity="0.12"/>
      <stop offset="100%" stop-color="var(--primary-text)" stop-opacity="0.08"/>
    </radialGradient>
    <linearGradient id="svg0d0d60e5-universal-surface-sheen" x1="0%" y1="0%" x2="100%" y2="100%">
      <stop offset="0%" stop-color="var(--art-sheen)" stop-opacity="var(--art-sheen-opacity)"/>
      <stop offset="46%" stop-color="var(--art-sheen)" stop-opacity="0.035"/>
      <stop offset="100%" stop-color="var(--art-panel-tint)" stop-opacity="0.14"/>
    </linearGradient>
    <radialGradient id="svg0d0d60e5-universal-icon-aura" cx="50%" cy="42%" r="64%">
      <stop offset="0%" stop-color="var(--art-glow)" stop-opacity="var(--art-glow-opacity)"/>
      <stop offset="100%" stop-color="var(--background)" stop-opacity="0"/>
    </radialGradient>
    <linearGradient id="svg0d0d60e5-earth-core-horizon" x1="0%" y1="0%" x2="0%" y2="100%">
      <stop offset="0%" stop-color="var(--accent-2)" stop-opacity="0.12"/>
      <stop offset="100%" stop-color="var(--background)" stop-opacity="0"/>
    </linearGradient>
    <marker id="svg0d0d60e5-arrowhead" markerWidth="10" markerHeight="7" refX="9" refY="3.5" orient="auto" markerUnits="strokeWidth">
      <polygon points="0 0, 10 3.5, 0 7" fill="var(--muted-text)" opacity="0.6"/>
    </marker>
  </defs>
  <rect width="100%" height="100%" fill="var(--background)" id="CANVAS_BG"/>
  <rect width="100%" height="100%" fill="url(#svg0d0d60e5-napkin-hatch)"/>
  <rect id="UNIVERSAL_EDGE_VIGNETTE" width="100%" height="100%" fill="url(#svg0d0d60e5-universal-edge-vignette)" opacity="0.62"/>
  <rect id="TITLE_FRAME" x="134" y="30" width="1652" height="70" fill="none"/>
  <text id="TITLE" x="960.0" y="59" font-size="48" font-weight="700" fill="#0f172a" text-anchor="middle" style="font-size: 60px; font-family: Inter, Segoe UI, Kalam, Roboto, Helvetica, Arial, sans-serif; font-weight: 700; letter-spacing:-1.2px;" data-final-font-size="60">
    <tspan x="960.0" dy="68.00px">Geographic Roots of Honobia Bigfoot Lore</tspan>
  </text>
  <g id="DIAGRAM_MAIN">
    <rect id="EARTH_CORE_HORIZON" x="0" y="120" width="1920" height="380" fill="url(#svg0d0d60e5-earth-core-horizon)" opacity="0.80"/>
    <path id="EARTH_CORE_SURFACE_GLINT" d="M 236 286 C 622 236 1298 236 1684 286" fill="none" stroke="var(--inverse-text)" stroke-width="2" stroke-opacity="0.12" stroke-linecap="round"/>
    <!-- Layer 1 -->
    <circle id="ITEM_1_BG_RING" cx="960" cy="2200" r="1950" fill="var(--accent-2)" fill-opacity="1.0" stroke="var(--accent-2)" stroke-width="2" stroke-dasharray="10 10" stroke-opacity="1.0"/>
    <!-- Layer 2 -->
    <circle id="ITEM_2_BG_RING" cx="960" cy="2200" r="1800" fill="var(--accent-3)" fill-opacity="1.0" stroke="var(--accent-3)" stroke-width="2" stroke-dasharray="10 10" stroke-opacity="1.0"/>
    <!-- Layer 3 -->
    <circle id="ITEM_3_BG_RING" cx="960" cy="2200" r="1650" fill="var(--accent-4)" fill-opacity="1.0" stroke="var(--accent-4)" stroke-width="2" stroke-dasharray="10 10" stroke-opacity="1.0"/>
    <!-- Layer 4 -->
    <circle id="ITEM_4_BG_RING" cx="960" cy="2200" r="1500" fill="var(--accent-5)" fill-opacity="1.0" stroke="var(--accent-5)" stroke-width="2" stroke-dasharray="10 10" stroke-opacity="1.0"/>
    <!-- Layer 5 -->
    <circle id="ITEM_5_BG_RING" cx="960" cy="2200" r="1350" fill="var(--accent-6)" fill-opacity="1.0" stroke="var(--accent-6)" stroke-width="2" stroke-dasharray="10 10" stroke-opacity="1.0"/>
    <!-- Central Axis Line -->
    <line x1="960" y1="200" x2="960" y2="1050" stroke="var(--primary-text)" stroke-width="4" stroke-dasharray="16 12" stroke-linecap="round" opacity="0.3"/>
    <circle cx="960" cy="250.0" r="64" fill="url(#svg0d0d60e5-universal-icon-aura)" opacity="0.82"/>
    <g transform="translate(960, 250.0)">
      <circle id="ITEM_1_STROKE" cx="0" cy="0" r="37" fill="transparent" stroke="var(--accent-2)" stroke-width="3" stroke-opacity="1.0"/>
      <circle id="ITEM_1_BORDER" cx="0" cy="0" r="45" fill="transparent" stroke="var(--accent-2)" stroke-width="3" stroke-dasharray="6 4" stroke-opacity="1.0"/>
      <circle id="ITEM_1_PAD" cx="0.00" cy="0.00" r="40.00" fill="var(--icon-pad-bg)" stroke="var(--primary-text)" stroke-width="2" opacity="0.9"/>
      <circle id="ITEM_1_PAD_INNER" cx="0.00" cy="0.00" r="31.20" fill="var(--accent-2)" fill-opacity="0.22"/>
      <g id="ITEM_1_ICON" transform="translate(-25, -25)" data-icon-size="50" stroke-dasharray="6 4">
        <g transform="translate(-9.427586206896557,-9.427586206896555) scale(2.8689655172413797)" vector-effect="non-scaling-stroke" stroke-width="2.31" stroke-linecap="round" stroke-linejoin="round" stroke-opacity="1.0">
          <path d="M12 2L7 6.64286C7 6.64286 10.0424 7 12 7C13.9576 7 17 6.64286 17 6.64286L12 2Z" stroke="#f1f5f9" vector-effect="non-scaling-stroke" fill="none"/>
          <path d="M8.5 7L5 10.9394C5 10.9394 7.625 12 12 12C16.375 12 19 10.9394 19 10.9394L15.5 7" stroke="#f1f5f9" vector-effect="non-scaling-stroke" fill="none"/>
          <path d="M6.5 11.5L3 15.5231C3 15.5231 5.7 18 12 18C18.3 18 21 15.5231 21 15.5231L17.5 11.5" stroke="#f1f5f9" vector-effect="non-scaling-stroke" fill="none"/>
          <path d="M12 22L12 19" stroke="#f1f5f9" vector-effect="non-scaling-stroke" fill="none"/>
        </g>
      </g>
    </g>
    <!-- Connector -->
    <line id="ITEM_1_CONN" x1="920" y1="250.0" x2="670.0" y2="250.0" stroke="var(--accent-2)" stroke-width="2" stroke-dasharray="4 4" opacity="0.6" stroke-opacity="1.0"/>
    <circle cx="670.0" cy="250.0" r="5" fill="var(--accent-1)"/>
    <!-- Rigid text block -->
    <!-- _FRAME guarantees text wraps neatly within text_w -->
    <rect id="ITEM_1_TEXT_BG" x="32.0" y="159.0" width="636.0" height="207.0" rx="22" fill="var(--panel)" fill-opacity="0.94" stroke="var(--primary-text)" stroke-opacity="0.12" stroke-width="1.5"/>
    <rect x="32.0" y="159.0" width="636.0" height="207.0" rx="16" fill="url(#svg0d0d60e5-universal-surface-sheen)" opacity="0.76"/>
    <rect id="ITEM_1_HEAD_FRAME" x="50.0" y="175.0" width="600" height="45" fill="none"/>
    <text id="ITEM_1_HEAD" data-bg-id="ITEM_1_TEXT_BG" x="650.0" y="175.0" font-weight="bold" font-size="28" fill="var(--primary-text)" text-anchor="end" fill-opacity="1.0" style="font-size: 30px; font-family: Inter, Segoe UI, Kalam, Roboto, Helvetica, Arial, sans-serif; font-weight: 700; letter-spacing:-0.4px;" data-final-font-size="30">
      <tspan x="650.0" dy="30.75px">Dense Forest Cover</tspan>
    </text>
    <rect id="ITEM_1_BODY_FRAME" x="50.0" y="265.0" width="600" height="85" fill="none"/>
    <text id="ITEM_1_BODY" data-bg-id="ITEM_1_TEXT_BG" x="650.0" y="265.0" font-size="20" fill="var(--primary-text)" text-anchor="end" style="font-size: 26px; font-family: Inter, Segoe UI, Kalam, Roboto, Helvetica, Arial, sans-serif; font-weight: 400;" data-final-font-size="26">
      <tspan x="650.0" dy="25.84px">Pine and hardwood forests provide deep</tspan>
      <tspan x="650.0" dy="29.90px">concealment for sightings</tspan>
    </text>
    <circle cx="960" cy="425.0" r="64" fill="url(#svg0d0d60e5-universal-icon-aura)" opacity="0.82"/>
    <g transform="translate(960, 425.0)">
      <circle id="ITEM_2_STROKE" cx="0" cy="0" r="37" fill="transparent" stroke="var(--accent-3)" stroke-width="3" stroke-opacity="1.0"/>
      <circle id="ITEM_2_BORDER" cx="0" cy="0" r="45" fill="transparent" stroke="var(--accent-3)" stroke-width="3" stroke-dasharray="6 4" stroke-opacity="1.0"/>
      <circle id="ITEM_2_PAD" cx="0.00" cy="0.00" r="40.00" fill="var(--icon-pad-bg)" stroke="var(--primary-text)" stroke-width="2" opacity="0.9"/>
      <circle id="ITEM_2_PAD_INNER" cx="0.00" cy="0.00" r="31.20" fill="var(--accent-3)" fill-opacity="0.22"/>
      <g id="ITEM_2_ICON" transform="translate(-25, -25)" data-icon-size="50" stroke-dasharray="6 4">
        <g transform="translate(-10.65714285714286,-12.607142857142858) scale(2.2285714285714286)">
          <path d="M8.97695 9.81822C7.68369 9.81822 7.53001 10.5467 7.61483 10.9109V25.3158L24.7324 27.2146L30.0002 22.5V15.0422L23.1876 8.26566L22.8596 8.02197L15.5002 9L12.4142 8.02197C12.2033 8.15625 11.951 8.32512 11.8094 8.46545C10.993 9.27463 10.3546 9.81822 8.97695 9.81822Z" fill="#8C5543"/>
          <path d="M13.6198 9.31063C13.035 9.08884 12.4462 8.80135 11.8037 8.47407C12.4581 7.81966 14.0595 6.21636 15.2299 5.03847C16.6928 3.5661 18.656 3.69821 19.9679 5.03847C20.2326 5.30884 20.5296 5.60931 20.8363 5.91774C18.5156 7.0625 16.3906 7.6875 13.6198 9.31063Z" fill="#CDC4D6"/>
          <path d="M13.1558 9.12228C14.1001 9.52955 15.0007 9.7862 16.0606 9.7862C17.6085 9.7862 18.8166 9.19163 19.4207 8.87073C20.0247 8.54982 21.0818 8.2006 21.9973 8.2006C22.7003 8.2006 23.0885 8.25855 23.2104 8.29102C22.8107 7.89374 22.362 7.44613 21.9279 7.00997C21.5508 6.63436 21.1458 6.22946 20.7593 5.84035C19.4543 4.68908 17.6172 4.64256 16.23 6.03871C15.2344 7.04072 13.9269 8.35058 13.1558 9.12228Z" fill="#F4F4F4"/>
          <path d="M5.96834 11.2402C5.07024 12.3299 2.95313 14.8594 2.00684 15.9879V22.5L16 27.8125L22.9724 25.3105L15.8325 18.1406C14.7667 17.0629 13.3627 16.2097 11.7162 16.2097C9.99483 16.2097 8.99195 14.7428 8.99195 13.0065C8.99195 10.9666 12.3886 10.1728 13.1604 9.12524C12.4433 8.81133 12.1057 8.64478 11.8209 8.46558C10.6252 9.68774 9.79822 9.78931 9.29321 9.78931C8.96166 9.78931 7.59646 9.61208 5.96834 11.2402Z" fill="#7D4533"/>
          <path d="M11.0125 23.0202C7.06082 21.6581 4.12549 21.9275 2 22.4664V29.9955H30V22.4609C26.8267 23.8679 23.4212 25.0261 20.0084 25.0261C16.5956 25.0261 14.9641 24.3824 11.0125 23.0202Z" fill="#00D26A"/>
        </g>
      </g>
    </g>
    <!-- Connector -->
    <line id="ITEM_2_CONN" x1="1000" y1="425.0" x2="1250.0" y2="425.0" stroke="var(--accent-3)" stroke-width="2" stroke-dasharray="4 4" opacity="0.6" stroke-opacity="1.0"/>
    <circle cx="1250.0" cy="425.0" r="5" fill="var(--accent-2)"/>
    <!-- Rigid text block -->
    <!-- _FRAME guarantees text wraps neatly within text_w -->
    <rect id="ITEM_2_TEXT_BG" x="1252.0" y="334.0" width="636.0" height="207.0" rx="22" fill="var(--panel)" fill-opacity="0.94" stroke="var(--primary-text)" stroke-opacity="0.12" stroke-width="1.5"/>
    <rect x="1252.0" y="334.0" width="636.0" height="207.0" rx="16" fill="url(#svg0d0d60e5-universal-surface-sheen)" opacity="0.76"/>
    <rect id="ITEM_2_HEAD_FRAME" x="1270.0" y="350.0" width="600" height="45" fill="none"/>
    <text id="ITEM_2_HEAD" data-bg-id="ITEM_2_TEXT_BG" x="1270.0" y="350.0" font-weight="bold" font-size="28" fill="var(--accent-3)" text-anchor="start" fill-opacity="1.0" style="font-size: 30px; font-family: Inter, Segoe UI, Kalam, Roboto, Helvetica, Arial, sans-serif; font-weight: 700; letter-spacing:-0.4px;" data-final-font-size="30">
      <tspan x="1270.0" dy="30.75px">Rugged Mountain Ridges</tspan>
    </text>
    <rect id="ITEM_2_BODY_FRAME" x="1270.0" y="440.0" width="600" height="85" fill="none"/>
    <text id="ITEM_2_BODY" data-bg-id="ITEM_2_TEXT_BG" x="1270.0" y="440.0" font-size="20" fill="var(--primary-text)" text-anchor="start" style="font-size: 26px; font-family: Inter, Segoe UI, Kalam, Roboto, Helvetica, Arial, sans-serif; font-weight: 400;" data-final-font-size="26">
      <tspan x="1270.0" dy="25.84px">The Kiamichi and Ouachita ranges create</tspan>
      <tspan x="1270.0" dy="29.90px">complex visual terrain</tspan>
    </text>
    <circle cx="960" cy="600.0" r="64" fill="url(#svg0d0d60e5-universal-icon-aura)" opacity="0.82"/>
    <g transform="translate(960, 600.0)">
      <circle id="ITEM_3_STROKE" cx="0" cy="0" r="37" fill="transparent" stroke="var(--accent-4)" stroke-width="3" stroke-opacity="1.0"/>
      <circle id="ITEM_3_BORDER" cx="0" cy="0" r="45" fill="transparent" stroke="var(--accent-4)" stroke-width="3" stroke-dasharray="6 4" stroke-opacity="1.0"/>
      <circle id="ITEM_3_PAD" cx="0.00" cy="0.00" r="40.00" fill="var(--icon-pad-bg)" stroke="var(--primary-text)" stroke-width="2" opacity="0.9"/>
      <circle id="ITEM_3_PAD_INNER" cx="0.00" cy="0.00" r="31.20" fill="var(--accent-4)" fill-opacity="0.22"/>
      <g id="ITEM_3_ICON" transform="translate(-25, -25)" data-icon-size="50" stroke-dasharray="6 4">
        <g transform="translate(-8.844067796610172,-8.844067796610176) scale(2.820338983050848)" vector-effect="non-scaling-stroke" stroke-width="2.31" stroke-linecap="round" stroke-linejoin="round" stroke-opacity="1.0">
          <path d="M14 18V6a2 2 0 0 0-2-2H4a2 2 0 0 0-2 2v11a1 1 0 0 0 1 1h2" vector-effect="non-scaling-stroke" fill="none" stroke="#f1f5f9"/>
          <path d="M15 18H9" vector-effect="non-scaling-stroke" fill="none" stroke="#f1f5f9"/>
          <path d="M19 18h2a1 1 0 0 0 1-1v-3.65a1 1 0 0 0-.22-.624l-3.48-4.35A1 1 0 0 0 17.52 8H14" vector-effect="non-scaling-stroke" fill="none" stroke="#f1f5f9"/>
          <circle cx="17" cy="18" r="2" vector-effect="non-scaling-stroke" fill="none" stroke="#f1f5f9"/>
          <circle cx="7" cy="18" r="2" vector-effect="non-scaling-stroke" fill="none" stroke="#f1f5f9"/>
        </g>
      </g>
    </g>
    <!-- Connector -->
    <line id="ITEM_3_CONN" x1="920" y1="600.0" x2="670.0" y2="600.0" stroke="var(--accent-4)" stroke-width="2" stroke-dasharray="4 4" opacity="0.6" stroke-opacity="1.0"/>
    <circle cx="670.0" cy="600.0" r="5" fill="var(--accent-3)"/>
    <!-- Rigid text block -->
    <!-- _FRAME guarantees text wraps neatly within text_w -->
    <rect id="ITEM_3_TEXT_BG" x="32.0" y="509.0" width="636.0" height="207.0" rx="22" fill="var(--panel)" fill-opacity="0.94" stroke="var(--primary-text)" stroke-opacity="0.12" stroke-width="1.5"/>
    <rect x="32.0" y="509.0" width="636.0" height="207.0" rx="16" fill="url(#svg0d0d60e5-universal-surface-sheen)" opacity="0.76"/>
    <rect id="ITEM_3_HEAD_FRAME" x="50.0" y="525.0" width="600" height="45" fill="none"/>
    <text id="ITEM_3_HEAD" data-bg-id="ITEM_3_TEXT_BG" x="650.0" y="525.0" font-weight="bold" font-size="28" fill="var(--primary-text)" text-anchor="end" fill-opacity="1.0" style="font-size: 30px; font-family: Inter, Segoe UI, Kalam, Roboto, Helvetica, Arial, sans-serif; font-weight: 700; letter-spacing:-0.4px;" data-final-font-size="30">
      <tspan x="650.0" dy="30.75px">Active Logging Roads</tspan>
    </text>
    <rect id="ITEM_3_BODY_FRAME" x="50.0" y="615.0" width="600" height="85" fill="none"/>
    <text id="ITEM_3_BODY" data-bg-id="ITEM_3_TEXT_BG" x="650.0" y="615.0" font-size="20" fill="var(--primary-text)" text-anchor="end" style="font-size: 26px; font-family: Inter, Segoe UI, Kalam, Roboto, Helvetica, Arial, sans-serif; font-weight: 400;" data-final-font-size="26">
      <tspan x="650.0" dy="25.84px">Timber roads provide frequent access</tspan>
      <tspan x="650.0" dy="29.90px">to remote forest edges</tspan>
    </text>
    <circle cx="960" cy="775.0" r="64" fill="url(#svg0d0d60e5-universal-icon-aura)" opacity="0.82"/>
    <g transform="translate(960, 775.0)">
      <circle id="ITEM_4_STROKE" cx="0" cy="0" r="37" fill="transparent" stroke="var(--accent-5)" stroke-width="3" stroke-opacity="1.0"/>
      <circle id="ITEM_4_BORDER" cx="0" cy="0" r="45" fill="transparent" stroke="var(--accent-5)" stroke-width="3" stroke-dasharray="6 4" stroke-opacity="1.0"/>
      <circle id="ITEM_4_PAD" cx="0.00" cy="0.00" r="40.00" fill="var(--icon-pad-bg)" stroke="var(--primary-text)" stroke-width="2" opacity="0.9"/>
      <circle id="ITEM_4_PAD_INNER" cx="0.00" cy="0.00" r="31.20" fill="var(--accent-5)" fill-opacity="0.22"/>
      <g id="ITEM_4_ICON" transform="translate(-25, -25)" data-icon-size="50" stroke-dasharray="6 4">
        <g transform="translate(-6.200000000000003,-6.200000000000001) scale(4.457142857142857)" vector-effect="non-scaling-stroke" stroke-width="2.31" stroke-linecap="round" stroke-linejoin="round" stroke-opacity="1.0">
          <path id="Subtract" fill="none" fill-rule="evenodd" d="M10.8976 6.84622c1.5467-.23293 2.6889-1.61099 2.5973-3.20335-.0972-1.68824-1.5446-2.978054-3.2328-2.880885C8.57386.859153 7.28404 2.30651 7.38121 3.99475c.0101.17538.03476.34646.07275.51213L5.81751 8.07322c-.05453-.00028-.10942.00114-.16462.00431-.56873.03274-1.08389.24697-1.49248.5832l-.00721.01789 1.44569.80447c.46744.26011.68108.81801.50697 1.32381-.20231.5877-.84975.8925-1.43164.6741l-1.43412-.5384-.00621.0154c.15641 1.3502 1.34169 2.3599 2.71606 2.2808 1.42525-.082 2.51414-1.3039 2.43211-2.7292-.01511-.2625-.06888-.51353-.15546-.74799l2.671-2.91539Zm.8841-3.20269c.0418.72747-.514 1.35116-1.2414 1.39303-.72752.04187-1.3512-.51393-1.39307-1.24141-.04188-.72748.51392-1.35116 1.24137-1.39303.7275-.04187 1.3512.51393 1.3931 1.24141Z" clip-rule="evenodd" vector-effect="non-scaling-stroke" stroke="#f1f5f9"/>
          <path id="Union" fill="none" fill-rule="evenodd" d="M10.5403 5.03656c.7274-.04187 1.2832-.66556 1.2414-1.39303-.0419-.72748-.6656-1.28328-1.3931-1.24141-.72745.04187-1.28325.66555-1.24137 1.39303.04187.72748.66555 1.28328 1.39307 1.24141ZM5.59889 9.48309l-4.5878-2.55295-.451886 3.00597L4.67422 11.481c.58189.2184 1.22933-.0864 1.43164-.6741.17411-.5058-.03953-1.0637-.50697-1.32381Z" clip-rule="evenodd" vector-effect="non-scaling-stroke" stroke="#f1f5f9"/>
          <path id="Union_2" stroke="#f1f5f9" d="M4.16041 8.66073c.40859-.33623.92375-.55046 1.49248-.5832.0552-.00317.11009-.0046.16462-.00431l1.63645-3.56634c-.03799-.16567-.06265-.33675-.07275-.51213C7.28404 2.30651 8.57386.859153 10.2621.761985c1.6882-.097169 3.1356 1.192645 3.2328 2.880885.0916 1.59236-1.0506 2.97042-2.5973 3.20335l-2.671 2.91539c.08658.23445.14035.48549.15546.74799.08203 1.4253-1.00686 2.6472-2.43211 2.7292-1.37437.0791-2.55965-.9306-2.71606-2.2808" vector-effect="non-scaling-stroke" fill="none"/>
          <path id="Ellipse 254" stroke="#f1f5f9" transform="rotate(-3.294 10.464 3.72)" d="M9.145 3.719a1.319 1.319 0 1 0 2.638 0 1.319 1.319 0 1 0-2.638 0" vector-effect="non-scaling-stroke" fill="none"/>
          <path id="Vector 709" stroke="#f1f5f9" d="m1.01112 6.93021 4.5878 2.55295c.46744.26011.68108.81794.50697 1.32374v0c-.2023.5877-.84975.8926-1.43163.6741L.559234 9.93617" vector-effect="non-scaling-stroke" fill="none"/>
        </g>
      </g>
    </g>
    <!-- Connector -->
    <line id="ITEM_4_CONN" x1="1000" y1="775.0" x2="1250.0" y2="775.0" stroke="var(--accent-5)" stroke-width="2" stroke-dasharray="4 4" opacity="0.6" stroke-opacity="1.0"/>
    <circle cx="1250.0" cy="775.0" r="5" fill="var(--accent-4)"/>
    <!-- Rigid text block -->
    <!-- _FRAME guarantees text wraps neatly within text_w -->
    <rect id="ITEM_4_TEXT_BG" x="1252.0" y="684.0" width="636.0" height="207.0" rx="22" fill="var(--panel)" fill-opacity="0.94" stroke="var(--primary-text)" stroke-opacity="0.12" stroke-width="1.5"/>
    <rect x="1252.0" y="684.0" width="636.0" height="207.0" rx="16" fill="url(#svg0d0d60e5-universal-surface-sheen)" opacity="0.76"/>
    <rect id="ITEM_4_HEAD_FRAME" x="1270.0" y="700.0" width="600" height="45" fill="none"/>
    <text id="ITEM_4_HEAD" data-bg-id="ITEM_4_TEXT_BG" x="1270.0" y="700.0" font-weight="bold" font-size="28" fill="var(--primary-text)" text-anchor="start" fill-opacity="1.0" style="font-size: 30px; font-family: Inter, Segoe UI, Kalam, Roboto, Helvetica, Arial, sans-serif; font-weight: 700; letter-spacing:-0.4px;" data-final-font-size="30">
      <tspan x="1270.0" dy="30.75px">Creek Bottom Zones</tspan>
    </text>
    <rect id="ITEM_4_BODY_FRAME" x="1270.0" y="790.0" width="600" height="85" fill="none"/>
    <text id="ITEM_4_BODY" data-bg-id="ITEM_4_TEXT_BG" x="1270.0" y="790.0" font-size="20" fill="var(--primary-text)" text-anchor="start" style="font-size: 26px; font-family: Inter, Segoe UI, Kalam, Roboto, Helvetica, Arial, sans-serif; font-weight: 400;" data-final-font-size="26">
      <tspan x="1270.0" dy="25.84px">Streamside vegetation creates dense thickets</tspan>
      <tspan x="1270.0" dy="29.90px">for potential encounters</tspan>
    </text>
    <circle cx="960" cy="900.0" r="64" fill="url(#svg0d0d60e5-universal-icon-aura)" opacity="0.82"/>
    <g transform="translate(960, 900.0)">
      <circle id="ITEM_5_STROKE" cx="0" cy="0" r="37" fill="transparent" stroke="var(--accent-6)" stroke-width="3" stroke-opacity="1.0"/>
      <circle id="ITEM_5_BORDER" cx="0" cy="0" r="45" fill="transparent" stroke="var(--accent-6)" stroke-width="3" stroke-dasharray="6 4" stroke-opacity="1.0"/>
      <circle id="ITEM_5_PAD" cx="0.00" cy="0.00" r="40.00" fill="var(--icon-pad-bg)" stroke="var(--primary-text)" stroke-width="2" opacity="0.9"/>
      <circle id="ITEM_5_PAD_INNER" cx="0.00" cy="0.00" r="31.20" fill="var(--accent-6)" fill-opacity="0.22"/>
      <g id="ITEM_5_ICON" transform="translate(-25, -25)" data-icon-size="50" stroke-dasharray="6 4">
        <g transform="translate(-8.280000000000003,-10.100000000000001) scale(0.13)" vector-effect="non-scaling-stroke" fill="#f1f5f9" fill-opacity="1.0" stroke="none">
          <path fill="#f1f5f9" d="m232.54 67.154l-17.08 5.692L241.513 151h18.976zM71.28 106.707l-14.56 10.586L71 136.928V230h18v-68.322L161.234 261h22.258zM272 117v18h39v16h18v-16h39v-18zm-23 52v126h108.943l-5.111-46H279v-80zm48 0v62h53.834l-6.889-62zM89 279v16h110v-16zm-70.012 34l41.248 110h319.68l114.25-110H140.588C157.022 318.35 169 333.85 169 352c0 22.537-18.463 41-41 41s-41-18.463-41-41c0-18.15 11.978-33.65 28.412-39zM128 329c-12.81 0-23 10.19-23 23s10.19 23 23 23s23-10.19 23-23s-10.19-23-23-23m208 0h80v18h-80zM96 439c-28.777 2.338-51.11 8.201-78.61 16.387l5.22 17.226C45.822 467.213 71.59 457.287 96 457c23.665 0 49.275 16 80 16s56.335-16 80-16s49.275 16 80 16s56.335-16 80-16c27.734 2.18 46.87 7.726 73.39 15.613l5.22-17.226C468.536 448.762 443.471 439.273 416 439c-30.725 0-56.335 16-80 16s-49.275-16-80-16s-56.335 16-80 16s-49.275-16-80-16" vector-effect="non-scaling-stroke" stroke="none"/>
        </g>
      </g>
    </g>
    <!-- Connector -->
    <line id="ITEM_5_CONN" x1="920" y1="900.0" x2="670.0" y2="900.0" stroke="var(--accent-6)" stroke-width="2" stroke-dasharray="4 4" opacity="0.6" stroke-opacity="1.0"/>
    <circle cx="670.0" cy="900.0" r="5" fill="var(--accent-5)"/>
    <!-- Rigid text block -->
    <!-- _FRAME guarantees text wraps neatly within text_w -->
    <rect id="ITEM_5_TEXT_BG" x="32.0" y="809.0" width="636.0" height="207.0" rx="22" fill="var(--panel)" fill-opacity="0.94" stroke="var(--primary-text)" stroke-opacity="0.12" stroke-width="1.5"/>
    <rect x="32.0" y="809.0" width="636.0" height="207.0" rx="16" fill="url(#svg0d0d60e5-universal-surface-sheen)" opacity="0.76"/>
    <rect id="ITEM_5_HEAD_FRAME" x="50.0" y="825.0" width="600" height="45" fill="none"/>
    <text id="ITEM_5_HEAD" data-bg-id="ITEM_5_TEXT_BG" x="650.0" y="825.0" font-weight="bold" font-size="28" fill="var(--accent-6)" text-anchor="end" fill-opacity="1.0" style="font-size: 30px; font-family: Inter, Segoe UI, Kalam, Roboto, Helvetica, Arial, sans-serif; font-weight: 700; letter-spacing:-0.4px;" data-final-font-size="30">
      <tspan x="650.0" dy="30.75px">Lake Country Borders</tspan>
    </text>
    <rect id="ITEM_5_BODY_FRAME" x="50.0" y="915.0" width="600" height="85" fill="none"/>
    <text id="ITEM_5_BODY" data-bg-id="ITEM_5_TEXT_BG" x="650.0" y="915.0" font-size="20" fill="var(--primary-text)" text-anchor="end" style="font-size: 26px; font-family: Inter, Segoe UI, Kalam, Roboto, Helvetica, Arial, sans-serif; font-weight: 400;" data-final-font-size="26">
      <tspan x="650.0" dy="25.84px">Broken Bow Lake area blends water</tspan>
      <tspan x="650.0" dy="29.90px">and wooded scenery</tspan>
    </text>
  </g>
</svg>
